<?xml version="1.0" standalone="no"?>
<!DOCTYPE svg PUBLIC "-//W3C//DTD SVG 20010904//EN"
 "http://www.w3.org/TR/2001/REC-SVG-20010904/DTD/svg10.dtd">
<svg version="1.0" xmlns="http://www.w3.org/2000/svg"
 width="1125.000000pt" height="1125.000000pt" viewBox="0 0 1125.000000 1125.000000"
 preserveAspectRatio="xMidYMid meet">
<metadata>
Created by potrace 1.11, written by Peter Selinger 2001-2013
</metadata>
<g transform="translate(0.000000,1125.000000) scale(0.100000,-0.100000)"
fill="#000000" stroke="none">
<path d="M5230 11231 c0 -7 -35 -11 -109 -11 -78 0 -111 -4 -114 -12 -4 -10
-8 -9 -16 2 -7 10 -11 11 -11 3 0 -8 -15 -13 -40 -13 -24 0 -40 -5 -40 -12 0
-6 -7 -3 -15 8 -10 12 -13 14 -10 3 5 -13 -4 -16 -52 -18 -32 -1 -61 -8 -65
-14 -5 -9 -8 -8 -8 3 0 12 -2 12 -9 2 -4 -8 -11 -13 -15 -13 -3 1 -27 1 -52 1
-33 0 -43 -3 -38 -12 6 -10 4 -10 -8 0 -11 9 -18 10 -23 2 -3 -5 -21 -10 -40
-10 -18 0 -36 -6 -38 -12 -4 -10 -8 -9 -16 2 -7 10 -11 11 -11 3 0 -7 -12 -13
-28 -13 -15 0 -34 -6 -41 -12 -8 -7 -11 -8 -8 -2 3 6 0 11 -8 11 -8 0 -12 -4
-9 -9 3 -4 -11 -8 -30 -8 -22 0 -36 -5 -36 -12 0 -9 -4 -8 -11 2 -8 11 -12 12
-16 3 -2 -7 -16 -13 -29 -13 -13 0 -24 -6 -24 -12 0 -8 -3 -9 -8 -3 -9 13 -35
18 -27 5 4 -6 -6 -10 -25 -10 -22 0 -29 -4 -24 -12 5 -9 2 -9 -9 1 -11 9 -17
10 -17 2 0 -6 -8 -11 -18 -11 -25 0 -72 -23 -72 -35 0 -5 -5 -3 -10 5 -9 13
-10 13 -10 0 0 -13 -1 -13 -10 0 -6 10 -10 11 -10 3 0 -7 -8 -13 -18 -13 -10
0 -24 -6 -31 -12 -11 -10 -13 -10 -7 0 4 6 2 12 -3 12 -6 0 -11 -4 -11 -10 0
-5 -9 -10 -21 -10 -13 0 -18 -4 -13 -12 6 -10 4 -10 -7 -2 -10 8 -20 8 -36 -1
-13 -6 -21 -14 -18 -17 3 -3 -8 -4 -25 -3 -16 1 -30 -2 -30 -7 0 -5 -5 -6 -12
-2 -8 5 -9 1 -4 -12 5 -14 4 -16 -4 -8 -15 15 -52 6 -43 -10 4 -6 0 -5 -9 2
-14 11 -17 10 -23 -9 -6 -17 -9 -19 -16 -8 -7 12 -9 11 -9 -1 0 -13 -1 -13
-10 0 -5 8 -10 10 -10 5 0 -6 -9 -16 -21 -23 -12 -8 -19 -9 -15 -4 3 5 -1 9
-9 9 -8 0 -12 -4 -9 -9 3 -4 -4 -8 -15 -8 -12 0 -21 -6 -21 -12 0 -10 -3 -9
-9 1 -7 11 -10 9 -16 -9 -5 -16 -10 -19 -15 -10 -5 9 -9 9 -14 1 -4 -6 -12 -8
-18 -5 -7 5 -9 2 -6 -7 4 -11 -1 -15 -21 -14 -14 0 -32 -6 -39 -15 -8 -8 -11
-9 -7 -3 4 9 1 11 -9 7 -9 -3 -16 -10 -16 -16 0 -5 -4 -7 -9 -3 -5 3 -16 -1
-24 -10 -8 -8 -21 -16 -28 -17 -8 -2 -20 -10 -27 -18 -9 -10 -11 -10 -7 -1 6
9 1 9 -17 -3 -14 -9 -28 -13 -33 -9 -4 5 -6 1 -3 -7 4 -11 -2 -15 -26 -14 -22
1 -35 -5 -43 -20 -7 -12 -12 -15 -13 -7 0 10 -3 11 -13 2 -8 -6 -18 -7 -22 -3
-5 4 -5 -1 -2 -11 6 -15 4 -16 -13 -7 -11 6 -20 7 -19 3 1 -4 1 -15 0 -23 -1
-13 -2 -13 -11 0 -7 12 -10 12 -10 1 0 -8 -6 -11 -16 -7 -8 3 -12 2 -9 -4 7
-11 -29 -32 -40 -22 -5 4 -5 1 -1 -5 4 -8 1 -13 -8 -13 -9 0 -16 -6 -16 -12 0
-10 -3 -9 -9 1 -7 11 -10 9 -16 -9 -6 -18 -9 -20 -16 -9 -8 11 -13 9 -29 -10
-11 -13 -20 -18 -20 -11 0 7 -9 2 -21 -11 -11 -13 -17 -18 -13 -10 5 9 3 12
-4 7 -7 -4 -12 -15 -13 -24 0 -11 -2 -13 -6 -4 -4 10 -8 8 -18 -5 -7 -10 -18
-19 -24 -19 -6 -1 -18 -2 -27 -3 -9 0 -12 -6 -8 -13 5 -8 2 -9 -9 -5 -11 4
-22 -2 -33 -18 -10 -15 -23 -22 -35 -20 -11 2 -17 0 -14 -4 2 -5 -3 -15 -12
-22 -12 -10 -14 -10 -9 -1 4 6 2 12 -3 12 -6 0 -11 -5 -11 -11 0 -5 -4 -7 -10
-4 -5 3 -7 0 -4 -9 4 -11 0 -14 -16 -11 -17 3 -20 0 -16 -12 5 -11 2 -14 -10
-9 -12 5 -15 2 -10 -10 6 -15 4 -15 -11 -3 -15 12 -16 12 -11 -3 5 -12 1 -16
-17 -13 -14 1 -22 -2 -19 -6 3 -5 -2 -12 -10 -15 -9 -3 -13 -11 -9 -18 4 -6
-2 -4 -12 4 -11 9 -16 10 -11 3 4 -8 2 -13 -4 -13 -6 0 -8 -5 -4 -12 6 -10 4
-10 -8 0 -11 9 -18 10 -23 2 -3 -5 -3 -10 1 -10 4 0 -1 -9 -11 -20 -10 -11
-26 -20 -36 -20 -11 0 -24 -9 -31 -19 -9 -14 -16 -17 -24 -10 -8 7 -15 6 -20
-2 -4 -7 -3 -9 3 -6 6 4 13 0 17 -8 3 -8 2 -14 -2 -14 -22 4 -42 -2 -37 -11 3
-5 -1 -10 -9 -10 -9 0 -16 -5 -16 -11 0 -8 -6 -7 -17 2 -15 13 -15 12 -4 -9 9
-18 9 -22 -1 -20 -7 2 -12 -2 -11 -8 1 -6 -5 -11 -13 -11 -10 0 -11 4 -4 11
21 21 9 24 -13 3 -13 -12 -22 -25 -20 -29 2 -5 -3 -8 -12 -8 -11 0 -15 -5 -12
-14 4 -9 0 -12 -13 -9 -10 3 -21 0 -24 -6 -5 -7 0 -9 11 -5 17 5 17 5 0 -6 -9
-6 -23 -8 -30 -4 -8 5 -7 2 2 -9 8 -10 11 -20 7 -24 -3 -3 -6 -1 -6 7 0 9 -3
10 -13 1 -8 -6 -18 -7 -22 -3 -5 4 -6 0 -3 -8 4 -11 -1 -16 -15 -17 -11 -1
-25 -7 -31 -14 -8 -8 -8 -10 0 -6 6 3 11 0 11 -8 0 -10 -5 -11 -18 -4 -15 7
-17 6 -13 -6 4 -8 -1 -17 -10 -21 -9 -3 -13 -11 -9 -18 4 -6 0 -6 -9 2 -13 10
-18 10 -24 1 -4 -8 -3 -9 4 -5 7 4 12 1 12 -9 0 -9 -5 -13 -10 -10 -6 4 -27
-11 -48 -33 -20 -21 -43 -37 -51 -34 -8 3 -11 0 -7 -7 7 -10 -7 -16 -28 -12
-5 1 -3 -6 5 -15 8 -10 9 -15 2 -11 -6 4 -14 3 -18 -3 -3 -5 -1 -10 6 -10 7 0
9 -3 6 -6 -4 -4 -13 -1 -22 6 -13 11 -14 10 -9 -4 4 -11 1 -16 -11 -16 -10 0
-15 -5 -12 -14 3 -8 -5 -18 -21 -25 -21 -10 -23 -14 -11 -22 7 -5 9 -9 4 -9
-6 0 -17 6 -24 13 -10 10 -11 9 -6 -5 5 -13 2 -18 -10 -18 -11 0 -15 -5 -11
-15 3 -10 -3 -17 -20 -21 -19 -5 -22 -9 -12 -15 9 -6 7 -9 -9 -9 -16 0 -21 -4
-17 -15 5 -11 2 -13 -12 -8 -9 3 -15 2 -12 -3 7 -11 -48 -64 -58 -55 -4 3 -5
0 -2 -8 2 -8 -4 -23 -14 -33 -26 -26 -35 -22 -12 5 l19 22 -22 -19 c-13 -11
-23 -28 -23 -38 0 -13 -4 -17 -12 -12 -10 6 -10 5 -1 -7 15 -19 -2 -40 -25
-32 -10 4 -13 2 -8 -5 4 -7 1 -12 -9 -12 -11 0 -15 -5 -11 -16 4 -10 2 -13 -6
-8 -8 5 -9 2 -4 -11 6 -16 4 -16 -11 -4 -15 13 -16 12 -11 -9 6 -20 4 -22 -10
-10 -13 11 -14 11 -7 -1 6 -11 4 -13 -10 -7 -15 5 -16 4 -5 -9 9 -11 9 -15 1
-15 -7 0 -9 -5 -6 -10 4 -6 3 -9 -2 -8 -4 2 -23 -10 -40 -26 -27 -24 -31 -32
-20 -44 11 -13 9 -14 -13 -2 -23 12 -24 12 -11 -3 12 -15 9 -21 -11 -18 -4 0
-5 -6 -2 -14 3 -8 -1 -22 -10 -30 -19 -19 -22 -6 -3 15 10 12 9 12 -6 1 -9 -7
-17 -20 -17 -28 0 -8 -5 -11 -12 -7 -8 5 -9 2 -5 -10 5 -14 3 -17 -8 -13 -8 4
-17 1 -21 -5 -4 -7 -3 -8 4 -4 7 4 12 2 12 -3 0 -6 -4 -11 -10 -11 -5 0 -10
-7 -10 -15 0 -9 -7 -18 -15 -21 -8 -4 -12 -11 -8 -18 4 -6 -1 -5 -10 3 -15 12
-17 12 -11 -4 6 -14 4 -16 -7 -10 -11 7 -11 5 1 -10 9 -11 10 -16 3 -11 -8 4
-13 2 -13 -4 0 -6 -6 -8 -12 -5 -7 4 -4 -1 7 -11 17 -14 17 -16 2 -11 -12 5
-17 1 -17 -13 0 -10 -8 -23 -17 -29 -10 -5 -18 -13 -18 -18 0 -4 -4 -7 -8 -5
-5 1 -7 -3 -5 -10 3 -7 -4 -17 -15 -23 -11 -5 -19 -14 -18 -18 1 -4 -5 -15
-14 -23 -8 -9 -15 -22 -15 -30 0 -10 -5 -12 -13 -8 -7 5 -6 0 3 -11 9 -11 10
-16 3 -11 -8 4 -13 2 -13 -8 0 -8 -5 -18 -12 -22 -7 -5 -8 -3 -3 6 5 9 4 11
-4 6 -6 -4 -8 -12 -5 -18 4 -6 -4 -19 -17 -29 -13 -10 -24 -26 -24 -36 0 -10
-6 -17 -13 -15 -10 2 -10 -2 -2 -18 6 -11 7 -19 3 -18 -4 1 -18 -3 -31 -10
-16 -10 -21 -19 -17 -33 4 -11 2 -19 -5 -19 -6 0 -10 -6 -8 -14 2 -7 -8 -24
-22 -36 -17 -15 -20 -20 -7 -16 27 9 20 -3 -9 -14 -19 -8 -25 -16 -21 -30 5
-21 -15 -44 -29 -32 -4 4 -2 -2 6 -12 13 -17 13 -18 1 -11 -10 6 -13 4 -9 -6
3 -9 -3 -26 -14 -40 -11 -13 -16 -18 -12 -10 5 9 3 12 -5 7 -6 -4 -9 -11 -6
-16 8 -14 -6 -40 -19 -33 -6 4 -6 0 2 -9 10 -13 10 -18 1 -24 -8 -5 -9 -3 -4
6 5 9 4 11 -3 6 -7 -4 -12 -18 -12 -32 0 -17 -4 -23 -12 -18 -8 5 -9 2 -5 -9
3 -10 2 -17 -4 -17 -6 0 -7 -4 -4 -10 3 -5 1 -10 -4 -10 -6 0 -11 -9 -11 -21
0 -12 -4 -18 -11 -13 -7 4 -10 1 -7 -7 3 -8 -2 -20 -11 -27 -12 -10 -13 -12
-1 -6 12 7 13 5 3 -8 -7 -8 -9 -19 -5 -23 4 -5 1 -5 -6 -1 -9 5 -13 3 -11 -5
3 -21 -12 -50 -22 -43 -5 3 -9 -4 -9 -15 0 -11 -5 -23 -10 -26 -6 -4 -10 -12
-8 -18 3 -20 -13 -58 -23 -52 -12 8 -11 -2 3 -28 10 -19 9 -20 -3 -10 -12 10
-15 7 -17 -20 -2 -17 -7 -36 -13 -42 -7 -7 -8 -4 -4 10 5 15 4 16 -3 6 -5 -7
-7 -22 -4 -34 3 -13 1 -18 -6 -13 -7 4 -10 -1 -7 -14 2 -11 -1 -20 -7 -20 -7
0 -6 -5 2 -15 10 -12 8 -14 -9 -10 -19 3 -20 1 -10 -17 6 -12 7 -18 1 -14 -5
3 -13 -1 -16 -10 -4 -10 -2 -13 7 -8 6 4 3 -3 -8 -16 -11 -13 -15 -21 -9 -17
6 3 11 0 11 -8 0 -8 -3 -13 -5 -10 -3 3 -11 0 -18 -6 -10 -8 -11 -16 -3 -31 9
-16 8 -19 -2 -13 -9 6 -11 3 -6 -8 3 -9 1 -19 -5 -23 -7 -5 -8 -2 -3 6 6 9 4
11 -4 6 -7 -5 -10 -11 -7 -14 3 -3 -2 -15 -11 -26 -17 -20 -17 -20 0 -7 16 13
25 2 10 -13 -4 -3 -8 -16 -10 -28 -2 -12 -8 -27 -13 -33 -5 -7 -6 -16 -2 -20
4 -5 -1 -5 -10 -2 -12 4 -15 2 -11 -8 3 -8 10 -12 17 -9 6 3 3 -1 -6 -9 -13
-10 -15 -16 -6 -25 9 -9 9 -12 -1 -12 -8 0 -11 -7 -8 -20 3 -13 1 -18 -6 -13
-7 4 -8 0 -4 -11 4 -10 3 -15 -3 -11 -6 4 -10 -5 -10 -20 0 -14 -4 -24 -9 -21
-5 4 -7 -4 -3 -16 4 -15 2 -19 -8 -13 -9 6 -10 4 -3 -10 7 -13 5 -31 -7 -66
-13 -35 -15 -50 -6 -60 8 -9 8 -10 -3 -4 -11 6 -13 4 -8 -9 6 -14 3 -17 -8
-12 -12 4 -13 2 -6 -12 6 -11 6 -24 0 -35 -6 -9 -7 -22 -3 -29 5 -7 2 -9 -8
-5 -13 5 -15 1 -8 -22 5 -18 3 -33 -5 -45 -7 -9 -12 -25 -11 -34 2 -9 -4 -23
-13 -30 -14 -12 -14 -13 2 -8 15 5 16 3 6 -16 -7 -13 -13 -41 -15 -63 -1 -22
-3 -44 -3 -49 -1 -4 -9 -5 -18 -2 -15 6 -15 4 2 -14 13 -14 14 -20 5 -20 -7 0
-10 -3 -7 -7 4 -3 1 -13 -6 -21 -10 -13 -9 -14 2 -8 9 6 12 5 9 -5 -3 -8 -10
-13 -15 -12 -5 1 -10 -4 -10 -12 0 -8 4 -12 8 -10 12 8 4 -22 -11 -41 -9 -11
-10 -15 -2 -10 8 5 12 0 12 -14 0 -14 -4 -19 -12 -14 -10 6 -10 5 -1 -7 10
-12 9 -21 -1 -41 -11 -20 -11 -29 -2 -39 8 -9 8 -10 -1 -5 -8 4 -13 1 -13 -8
0 -9 6 -16 13 -16 8 0 9 -3 1 -8 -6 -4 -10 -26 -9 -50 1 -24 -2 -45 -7 -48 -4
-3 -8 0 -8 7 0 7 -3 9 -6 6 -4 -4 -2 -12 4 -20 6 -7 7 -18 3 -26 -5 -7 -6 -23
-3 -35 5 -19 4 -20 -14 -6 -18 14 -18 14 -3 -5 9 -11 14 -26 11 -34 -3 -10 0
-11 9 -5 11 6 12 5 3 -7 -6 -8 -11 -34 -10 -59 1 -25 -2 -53 -7 -64 -7 -14 -6
-16 3 -11 10 6 11 1 6 -18 -3 -14 -2 -29 4 -32 7 -4 7 -12 0 -25 -5 -10 -7
-26 -3 -36 4 -11 3 -15 -5 -10 -6 3 -14 2 -17 -4 -4 -6 -1 -9 6 -8 6 2 14 -3
17 -11 2 -8 0 -11 -6 -7 -6 3 -14 2 -17 -4 -4 -6 -1 -9 7 -8 10 2 13 -18 12
-89 0 -51 3 -90 8 -87 4 3 5 -2 2 -11 -5 -13 -9 -13 -22 -3 -13 11 -13 9 1
-12 19 -27 23 -55 7 -45 -6 4 -7 -2 -1 -17 6 -15 5 -31 -1 -42 -8 -14 -7 -17
1 -12 6 4 11 2 11 -3 0 -6 -6 -11 -12 -11 -9 0 -8 -4 2 -10 14 -9 6 -15 -15
-10 -5 1 -6 -2 -2 -7 5 -4 13 -9 18 -9 23 -3 23 -6 -1 -20 -14 -8 -18 -13 -10
-11 11 3 15 -5 16 -34 1 -21 -2 -36 -7 -34 -4 3 -11 1 -14 -5 -4 -6 -1 -9 7
-8 19 4 19 -50 -1 -69 -14 -14 -13 -15 9 -8 25 8 25 7 7 -13 -14 -15 -15 -22
-6 -28 7 -4 10 -3 6 3 -3 5 -1 10 6 10 8 0 12 -21 11 -69 -1 -37 2 -68 8 -68
5 0 6 -5 3 -10 -5 -8 -11 -8 -19 -1 -9 8 -13 7 -13 -4 0 -7 3 -14 6 -13 20 2
22 -4 5 -17 -18 -13 -18 -14 6 -9 14 2 19 2 13 -2 -7 -3 -13 -10 -13 -15 0 -6
4 -8 9 -5 5 3 11 0 14 -8 3 -8 -1 -17 -9 -20 -22 -9 -26 -7 -18 6 5 7 3 8 -6
3 -10 -6 -10 -11 3 -20 9 -7 13 -16 9 -20 -4 -5 -1 -5 6 -1 7 4 9 13 6 19 -4
7 -3 9 1 4 13 -11 14 -50 3 -64 -7 -9 -6 -15 5 -19 10 -3 14 -14 11 -27 -13
-64 -13 -77 -5 -77 6 0 8 9 6 21 -4 17 -2 19 11 9 8 -8 11 -17 6 -24 -7 -10
-9 -31 -2 -38 1 -2 3 -15 4 -29 2 -14 6 -31 10 -37 4 -8 0 -12 -11 -12 -15 0
-15 -2 -3 -9 8 -6 17 -8 20 -6 4 2 7 -2 7 -9 0 -8 -7 -12 -16 -9 -9 3 -5 -4 9
-16 27 -22 21 -28 -10 -11 -13 7 -21 7 -26 -2 -4 -6 -3 -8 3 -5 6 4 22 -2 37
-14 22 -17 24 -23 13 -41 -9 -16 -9 -22 1 -25 6 -3 12 -13 12 -23 0 -10 4 -21
10 -25 15 -10 0 -34 -18 -28 -13 4 -12 2 3 -11 11 -10 13 -14 5 -10 -12 7 -13
5 -3 -8 7 -8 9 -19 5 -23 -4 -5 -1 -4 7 0 11 6 13 4 8 -8 -3 -9 -1 -19 5 -23
6 -4 8 -3 4 4 -3 6 -3 13 2 16 8 5 10 -7 15 -91 1 -23 6 -41 12 -40 5 1 9 -7
10 -19 0 -11 6 -28 14 -37 11 -14 11 -18 -3 -23 -9 -3 -16 -14 -15 -23 0 -10
2 -11 6 -3 2 6 11 12 20 12 13 0 12 -2 -1 -15 -8 -9 -13 -22 -10 -30 4 -8 1
-15 -5 -15 -6 0 -11 -5 -11 -11 0 -8 5 -7 15 1 12 10 19 10 27 2 7 -7 8 -12 4
-12 -5 0 -3 -7 4 -15 7 -8 9 -15 5 -15 -4 0 -1 -8 6 -17 12 -15 12 -16 -3 -10
-27 10 -30 -8 -5 -29 21 -19 21 -19 7 1 -14 18 -13 19 1 8 9 -7 18 -11 21 -8
2 3 5 -2 5 -10 0 -8 -4 -12 -9 -9 -4 3 -8 0 -8 -6 0 -6 -4 -9 -9 -5 -5 3 -12
1 -16 -5 -4 -6 -11 -7 -17 -4 -6 4 -8 2 -5 -4 8 -11 25 -11 45 1 7 5 12 3 12
-3 0 -6 5 -8 12 -4 9 5 9 2 -1 -9 -7 -9 -10 -17 -5 -17 5 0 -2 -10 -16 -21
-14 -11 -19 -17 -11 -13 29 15 59 13 56 -4 -1 -10 2 -22 7 -28 5 -7 4 -14 -5
-17 -9 -3 -13 3 -13 19 1 24 -17 30 -20 6 -1 -6 2 -9 8 -6 6 4 9 1 6 -7 -3 -8
-10 -14 -16 -14 -5 0 -13 -3 -17 -6 -3 -4 4 -6 17 -5 13 0 23 -3 24 -9 2 -20
16 -45 26 -45 7 0 6 5 -1 13 -6 8 -7 18 -3 22 4 5 2 5 -4 2 -6 -3 -11 0 -11 7
0 7 6 13 13 13 7 0 11 -8 9 -18 -2 -10 0 -21 5 -24 5 -3 7 -19 5 -36 -4 -25
-2 -29 9 -19 11 8 16 8 22 -1 4 -8 3 -9 -4 -5 -18 11 -14 -2 8 -34 l20 -28
-27 -10 c-22 -8 -24 -11 -8 -11 17 -1 18 -3 5 -12 -13 -9 -13 -10 0 -6 8 2 14
11 12 18 -3 11 -1 11 9 2 10 -10 9 -16 -2 -29 -12 -16 -12 -17 3 -11 23 8 40
-22 27 -46 -6 -9 -7 -17 -3 -17 3 0 0 -8 -7 -17 -10 -11 -10 -14 -2 -9 7 4 13
3 13 -2 0 -6 7 -12 15 -16 9 -3 15 0 15 9 0 8 -5 14 -11 13 -15 -4 -20 30 -7
39 6 3 8 1 5 -4 -4 -6 0 -16 8 -23 9 -7 15 -20 14 -29 -1 -9 -1 -23 0 -31 1
-13 2 -13 12 0 8 12 9 11 7 -5 -2 -12 2 -19 10 -17 8 1 11 -2 7 -8 -3 -6 -11
-7 -17 -4 -8 5 -9 1 -3 -12 4 -10 8 -27 9 -36 0 -13 6 -16 18 -12 10 3 18 0
18 -6 0 -6 -5 -8 -10 -5 -6 3 -10 2 -10 -3 0 -17 13 -22 29 -9 14 10 14 10 3
-5 -12 -15 -11 -20 7 -40 25 -26 22 -44 -5 -41 -10 1 -13 0 -6 -3 6 -3 9 -11
5 -17 -4 -7 6 -3 22 7 22 14 26 15 17 4 -7 -9 -9 -18 -5 -20 4 -3 3 -4 -4 -2
-6 1 -19 -4 -30 -12 -17 -14 -17 -14 1 -7 15 5 17 3 11 -8 -6 -11 -5 -12 6 -1
19 17 29 15 29 -8 0 -11 3 -19 8 -19 21 4 30 -3 27 -18 -1 -10 -7 -17 -13 -16
-13 3 -10 -21 6 -40 7 -8 12 -19 11 -23 -3 -13 12 -44 20 -44 4 0 8 7 8 15 0
8 -4 12 -9 9 -5 -3 -8 -2 -7 3 3 18 -2 32 -16 46 -13 13 -13 16 1 21 8 3 13 2
10 -3 -3 -5 1 -11 9 -15 9 -3 12 -12 8 -22 -5 -13 -3 -15 7 -9 8 5 11 4 6 -3
-3 -5 0 -13 6 -15 10 -4 10 -6 0 -6 -7 -1 -10 -6 -6 -12 3 -6 0 -15 -7 -20
-11 -7 -11 -9 -1 -9 7 0 10 -4 7 -10 -3 -5 -1 -10 6 -10 7 0 10 -3 6 -6 -3 -4
4 -15 16 -26 18 -16 19 -19 4 -14 -11 3 -16 2 -12 -4 6 -10 45 -7 67 6 10 5
10 4 2 -5 -6 -6 -21 -13 -34 -16 -12 -2 -25 -7 -29 -11 -3 -4 2 -4 12 -1 13 5
20 0 26 -16 5 -12 6 -26 3 -31 -3 -5 0 -6 5 -3 6 4 14 0 17 -9 5 -12 2 -15
-11 -10 -17 6 -17 5 -1 -7 10 -8 14 -17 10 -21 -4 -4 0 -6 8 -4 11 2 15 -6 14
-29 0 -18 4 -33 9 -33 5 0 7 7 4 15 -8 20 11 29 28 15 12 -10 15 -10 15 1 1 8
7 3 14 -11 15 -26 12 -40 -7 -40 -9 0 -9 2 -1 8 8 5 4 13 -11 24 -22 17 -23
17 -20 0 2 -9 4 -19 5 -22 1 -3 2 -9 1 -13 -1 -5 3 -6 8 -3 5 4 13 2 16 -4 5
-8 11 -8 20 0 9 8 15 8 20 0 6 -9 -1 -14 -18 -11 -11 2 -8 -9 8 -25 8 -9 15
-21 15 -27 0 -7 -8 -3 -17 8 -11 14 -14 15 -10 4 3 -9 0 -23 -6 -30 -10 -10
-9 -11 3 -2 20 15 45 -8 27 -26 -8 -8 -8 -11 1 -11 7 0 12 5 12 11 0 5 5 7 11
4 7 -5 4 -14 -8 -27 -9 -11 -13 -19 -8 -18 23 5 36 -1 29 -12 -5 -9 -3 -9 9 1
20 16 13 33 -11 24 -14 -6 -15 -4 -4 9 10 13 10 18 0 29 -17 18 -22 49 -8 49
5 0 9 -3 9 -7 -1 -5 -1 -15 0 -23 1 -13 2 -13 12 0 8 12 9 11 4 -6 -6 -23 30
-78 45 -69 5 3 12 0 16 -6 4 -7 3 -9 -4 -5 -6 3 -15 -2 -21 -11 -6 -10 -11
-12 -11 -5 0 6 -5 12 -12 12 -6 0 -1 -12 13 -26 13 -14 24 -29 24 -32 0 -4 3
-6 7 -5 3 1 9 -4 12 -12 3 -9 0 -12 -8 -9 -8 3 -17 1 -21 -5 -3 -6 0 -9 8 -5
18 6 67 -35 50 -42 -7 -3 -13 -11 -13 -16 0 -6 3 -8 7 -5 3 4 13 1 22 -6 14
-11 15 -10 1 7 -14 18 -13 18 9 11 13 -4 21 -3 18 2 -3 5 -1 15 5 23 8 12 9
12 4 -2 -3 -10 -1 -18 5 -18 6 0 -3 -12 -20 -28 -23 -21 -28 -31 -20 -42 9
-13 10 -13 6 2 -4 9 1 19 10 22 11 4 14 2 10 -9 -4 -8 -1 -17 5 -21 7 -4 8 -3
4 4 -4 7 -3 12 2 12 5 0 9 7 9 15 0 8 -4 12 -9 9 -4 -3 -8 -1 -8 5 0 5 9 9 19
8 11 0 19 -6 18 -12 -1 -5 4 -9 12 -7 11 2 12 0 3 -11 -8 -9 -8 -17 -1 -24 8
-8 7 -18 -2 -34 -11 -23 -11 -23 7 -8 35 30 47 34 35 12 -7 -14 -7 -23 1 -31
8 -8 8 -15 0 -24 -7 -9 -7 -19 -2 -28 6 -8 10 -10 11 -5 2 25 8 47 14 53 4 4
5 -2 3 -12 -1 -10 3 -21 11 -24 8 -3 11 0 7 7 -5 7 -1 8 10 4 11 -4 13 -8 6
-11 -18 -6 -14 -22 6 -22 14 0 14 -2 3 -9 -10 -6 -20 -3 -32 12 -10 12 -18 16
-19 10 0 -7 5 -13 10 -13 7 0 7 -6 0 -19 -11 -21 -13 -21 48 -7 14 3 18 -1 16
-17 -4 -33 -4 -33 -17 -15 -9 11 -18 14 -28 7 -11 -7 -11 -9 4 -9 9 0 17 -4
17 -10 0 -17 28 -11 40 8 7 11 10 12 7 2 -4 -17 31 -52 44 -44 5 3 9 0 9 -5 0
-6 -5 -11 -11 -11 -5 0 -8 -4 -4 -9 3 -5 0 -13 -6 -17 -8 -4 -9 -3 -5 4 4 7 1
12 -6 12 -10 0 -9 3 2 11 13 9 12 10 -3 5 -12 -4 -16 -2 -11 6 5 7 3 8 -6 3
-9 -6 -11 -4 -5 5 6 9 4 11 -5 5 -9 -6 -11 -4 -5 5 5 8 -5 5 -23 -6 -17 -10
-29 -20 -27 -23 3 -2 11 1 17 7 15 15 32 16 23 2 -4 -6 -1 -9 7 -8 7 2 12 -3
10 -10 -1 -8 2 -11 8 -7 9 5 14 -7 12 -26 -1 -4 6 -6 16 -5 9 0 16 -5 14 -12
-1 -8 2 -11 8 -7 5 3 10 1 10 -4 0 -6 5 -11 12 -11 6 0 2 10 -10 23 -16 17
-18 26 -11 37 9 13 10 12 5 -2 -6 -20 10 -35 17 -16 2 7 3 5 2 -4 -2 -10 10
-29 27 -43 23 -19 29 -32 25 -50 -2 -14 0 -25 5 -25 5 0 6 -6 2 -12 -5 -8 0
-7 11 2 17 14 18 13 12 -2 -9 -26 34 -66 68 -63 24 3 25 2 12 -13 -8 -9 -12
-23 -9 -31 3 -9 0 -11 -9 -6 -8 5 -10 4 -6 0 10 -11 37 -15 37 -6 0 4 -5 12
-10 19 -6 6 -7 10 -4 7 4 -3 13 3 21 13 12 16 13 16 6 -2 -4 -13 -3 -17 5 -12
7 4 12 2 12 -3 0 -6 -5 -11 -11 -11 -6 0 -8 -9 -4 -21 5 -13 3 -19 -3 -15 -5
3 -12 0 -15 -7 -3 -7 3 -13 13 -13 10 0 17 4 14 7 -10 16 51 1 72 -18 17 -15
26 -18 35 -9 10 9 11 8 1 -5 -6 -9 -8 -20 -4 -24 4 -5 3 -6 -3 -3 -5 3 -19 -6
-30 -21 -10 -14 -13 -21 -5 -14 12 9 21 6 43 -13 24 -21 23 -29 -4 -26 -3 1
-6 -6 -6 -13 0 -10 4 -12 12 -5 23 19 51 -2 46 -33 -1 -5 3 -6 9 -2 7 4 7 12
0 26 -8 13 -7 19 0 19 8 0 7 6 0 20 -8 15 -17 19 -32 14 -12 -4 -18 -2 -14 4
3 5 17 12 31 14 13 3 22 2 20 -3 -9 -14 6 -38 21 -32 8 3 11 10 7 16 -4 6 -1
7 7 2 11 -7 9 -12 -8 -23 -28 -19 -29 -36 -1 -21 12 6 19 7 15 1 -7 -12 18
-35 27 -25 4 3 7 1 7 -5 0 -7 -5 -12 -12 -12 -6 0 -8 -3 -5 -7 4 -3 1 -13 -5
-22 -7 -9 -9 -13 -4 -9 5 4 15 0 23 -8 15 -15 38 -10 27 7 -3 5 -10 6 -16 3
-7 -5 -8 -2 -3 6 6 9 4 11 -6 5 -8 -5 -6 1 4 13 11 11 16 25 13 31 -4 5 -3 12
2 15 4 2 8 -4 9 -14 1 -11 -3 -22 -8 -25 -5 -4 -6 -11 -3 -17 4 -7 9 -6 14 2
5 8 9 8 13 -4 3 -8 -4 -27 -16 -43 -18 -24 -19 -26 -1 -12 10 9 26 14 34 12
13 -4 13 -3 0 7 -12 10 -12 11 5 5 11 -4 26 -8 33 -8 6 0 12 -4 12 -9 0 -4 -8
-7 -18 -6 -33 2 -52 -2 -52 -12 0 -7 7 -7 21 0 14 8 24 8 32 1 8 -6 18 -6 27
-1 8 6 20 10 25 9 6 0 -2 -7 -18 -15 -26 -14 -27 -16 -12 -44 19 -36 19 -36
45 -8 11 12 23 18 27 15 3 -4 1 -7 -5 -7 -7 0 -12 -4 -12 -10 0 -5 6 -10 14
-10 8 0 17 -8 20 -17 6 -14 9 -15 15 -4 6 9 9 5 9 -13 0 -14 -4 -26 -9 -26 -5
0 -8 6 -7 13 2 6 -3 11 -10 9 -6 -1 -11 2 -10 7 2 5 -1 9 -6 9 -5 0 -12 5 -15
10 -4 7 -15 4 -30 -7 -17 -13 -19 -18 -7 -18 9 0 16 4 16 9 0 4 4 8 10 8 5 0
7 -8 4 -17 -5 -15 -4 -16 5 -3 10 14 16 7 12 -13 -1 -5 3 -6 8 -3 5 4 12 2 16
-4 3 -5 18 -8 33 -5 15 2 34 0 42 -5 11 -7 11 -10 2 -10 -7 0 -10 -5 -6 -12 5
-7 11 -5 21 7 7 11 13 14 13 9 0 -6 -5 -15 -12 -22 -6 -6 -8 -15 -3 -19 4 -5
10 -2 12 5 3 6 9 12 14 12 6 0 7 -5 4 -10 -3 -5 3 -10 14 -10 12 0 21 -4 21
-8 0 -19 -62 -2 -85 22 -13 14 -19 26 -13 26 6 0 9 3 5 6 -3 3 -14 1 -24 -5
-17 -10 -17 -11 5 -17 20 -6 27 -16 23 -37 -1 -5 4 -5 10 -1 9 5 10 2 5 -11
-5 -14 -4 -16 7 -7 19 16 30 3 14 -17 -11 -14 -10 -14 6 -2 16 13 22 8 18 -13
-1 -5 5 -4 13 3 9 7 13 18 9 25 -4 7 -1 7 7 -1 11 -10 11 -15 0 -28 -11 -14
-7 -19 13 -16 4 1 15 -5 22 -13 12 -11 12 -16 2 -20 -6 -3 -1 -3 13 1 21 5 23
4 13 -9 -10 -12 -10 -15 2 -15 8 0 11 5 8 10 -4 6 1 8 11 4 10 -4 15 -3 11 3
-3 6 -1 10 4 10 17 0 13 -21 -7 -37 -9 -8 -11 -12 -5 -8 7 3 22 1 34 -5 16 -9
24 -9 33 0 8 8 6 10 -9 5 -17 -6 -17 -5 -5 5 12 9 10 10 -10 6 -14 -3 -19 -3
-12 0 6 3 10 10 6 15 -3 5 6 4 21 -3 18 -8 24 -17 19 -27 -8 -20 -12 -38 -7
-29 2 4 12 4 21 1 13 -4 14 -3 3 5 -8 6 -9 12 -3 16 5 3 12 -1 16 -9 3 -8 12
-12 19 -9 9 3 16 -3 20 -15 3 -14 10 -19 21 -15 9 3 16 1 16 -6 0 -6 4 -9 8
-6 5 3 9 -1 9 -7 0 -7 -10 -14 -21 -15 -15 -1 -17 1 -7 7 7 5 9 11 4 14 -5 3
-15 -4 -22 -16 -8 -12 -10 -19 -6 -15 5 4 14 0 22 -10 8 -9 11 -11 8 -4 -5 10
4 12 42 10 41 -3 48 -6 44 -23 -3 -20 -3 -20 20 0 13 11 18 13 12 4 -18 -23 3
-42 31 -28 20 9 20 9 3 -4 -14 -12 -15 -17 -6 -23 7 -4 15 -2 17 4 2 7 8 12
14 12 6 0 6 -6 -2 -15 -14 -17 -5 -35 16 -35 8 0 12 5 9 10 -4 6 -11 7 -17 4
-7 -5 -8 -2 -4 5 6 9 13 8 27 -5 17 -16 24 -13 20 9 -1 5 3 6 9 2 8 -5 8 -11
1 -19 -6 -7 -9 -15 -6 -18 3 -2 -2 -5 -10 -5 -8 0 -11 5 -8 10 3 6 1 7 -5 3
-16 -10 -15 -27 1 -25 24 3 34 -1 34 -16 0 -17 -13 -20 -20 -5 -3 6 -4 5 -3
-2 1 -7 16 -14 32 -15 20 -2 25 0 15 7 -8 5 -16 21 -17 37 l-3 28 10 -27 c6
-16 15 -28 20 -28 4 0 6 6 3 14 -3 8 0 17 7 22 8 4 10 3 5 -4 -4 -6 -1 -20 6
-31 10 -16 15 -18 27 -8 10 8 13 8 8 1 -9 -15 11 -30 42 -32 13 0 24 -2 25 -4
40 -55 76 -99 76 -92 0 5 -7 20 -16 32 -8 12 -10 22 -5 22 6 0 11 -5 11 -11 0
-8 5 -8 15 1 10 9 15 9 15 1 0 -6 -4 -11 -10 -11 -5 0 -10 -4 -10 -8 0 -5 7
-9 15 -9 8 0 15 5 15 10 0 6 2 8 5 5 3 -3 2 -13 -1 -22 -5 -14 -9 -15 -15 -4
-7 10 -9 9 -9 -3 0 -9 7 -19 15 -22 8 -4 12 -15 10 -28 -2 -12 -1 -18 3 -15 4
4 7 12 7 17 0 5 4 8 10 7 5 -2 9 -10 7 -18 -2 -12 -1 -12 6 -1 7 9 12 10 16 2
10 -15 46 9 39 26 -8 20 -23 16 -17 -4 5 -15 4 -16 -5 -3 -8 11 -11 12 -11 2
0 -7 -5 -10 -11 -7 -6 5 -2 13 12 23 20 14 23 14 34 -1 7 -9 16 -13 21 -9 5 4
-2 -5 -15 -20 -14 -16 -21 -31 -18 -35 4 -3 7 0 8 8 0 9 4 6 10 -6 9 -19 9
-19 5 2 -3 17 3 24 27 32 17 6 27 8 24 4 -4 -3 0 -15 10 -25 15 -16 18 -17 33
-3 14 13 17 13 17 0 0 -8 -4 -12 -9 -9 -4 3 -8 1 -8 -4 0 -17 13 -22 28 -9 13
10 14 9 8 -2 -7 -10 -3 -12 15 -7 13 3 18 3 11 0 -10 -5 -10 -9 0 -22 12 -15
11 -16 -4 -3 -10 7 -18 10 -18 5 0 -5 -5 -2 -10 6 -6 10 -10 11 -10 3 0 -8 -8
-5 -20 7 -17 17 -23 18 -40 8 -11 -7 -20 -17 -20 -22 0 -4 6 -4 13 3 10 8 17
7 27 -2 10 -9 11 -9 6 0 -4 7 -2 13 3 13 10 0 15 -14 12 -33 0 -4 5 -6 11 -5
7 2 12 -2 11 -8 -1 -6 5 -11 13 -11 7 0 14 4 14 9 0 4 -5 8 -11 8 -5 0 -7 4
-4 10 4 6 13 5 25 -2 14 -9 16 -15 8 -25 -6 -8 -8 -16 -4 -20 3 -3 6 -1 6 6 0
7 4 10 9 7 5 -3 15 1 22 10 10 12 10 15 0 12 -7 -2 -15 7 -17 20 -5 29 0 28
21 -4 12 -19 14 -29 5 -39 -7 -8 -7 -15 -1 -19 5 -4 12 -2 16 4 4 7 13 6 27
-1 11 -6 18 -7 15 -2 -4 5 -1 10 6 10 7 0 21 4 32 9 17 7 18 6 5 -8 -8 -9 -18
-14 -22 -11 -5 2 -8 -1 -8 -6 0 -13 17 -14 24 -2 3 5 19 8 36 7 16 -1 32 3 34
8 2 6 5 3 5 -6 1 -10 -4 -18 -10 -18 -5 0 -7 -5 -4 -10 4 -7 14 -6 28 1 12 7
19 8 15 4 -4 -4 -1 -13 5 -20 9 -10 15 -10 26 -1 11 8 13 8 8 0 -4 -7 -1 -14
7 -17 15 -6 16 9 2 33 -7 12 -6 13 5 3 16 -16 33 -17 23 -1 -5 7 -3 8 5 4 7
-5 10 -10 7 -14 -3 -3 2 -11 12 -19 15 -13 15 -13 -5 -4 -29 15 -33 14 -27 -4
4 -8 11 -12 17 -8 6 3 7 1 3 -5 -4 -7 -1 -21 7 -32 13 -18 15 -19 21 -5 4 10
2 14 -6 9 -7 -5 -8 -3 -3 6 6 9 4 11 -5 5 -8 -5 -11 -4 -6 3 4 7 15 6 34 -4
25 -13 27 -12 34 9 6 20 6 21 7 1 1 -26 19 -44 37 -37 17 6 19 -13 2 -23 -6
-4 -8 -3 -4 4 3 6 -1 9 -11 8 -21 -3 -27 -43 -6 -43 9 0 10 4 3 11 -5 5 -10
14 -10 20 0 6 5 5 12 -2 7 -7 17 -8 30 -1 12 6 24 6 37 -1 34 -17 37 -11 8 15
-39 36 -34 43 7 8 36 -29 39 -49 16 -80 -14 -17 -14 -17 6 -1 16 14 23 15 34
5 8 -7 11 -8 7 -1 -8 13 20 27 34 18 5 -3 9 1 9 8 0 7 8 1 18 -15 9 -15 20
-27 24 -27 13 0 9 10 -14 43 -20 30 -19 30 16 -5 37 -38 74 -54 42 -19 -13 14
-14 21 -5 27 7 4 10 3 6 -3 -4 -6 0 -16 7 -22 10 -8 16 -9 21 -1 3 5 11 10 16
10 6 0 -3 -12 -20 -26 -17 -14 -31 -31 -31 -37 0 -8 3 -8 8 1 5 7 17 10 28 6
16 -5 17 -4 4 6 -13 10 -12 11 3 6 10 -3 21 -6 24 -6 3 0 0 -7 -7 -15 -7 -8
-9 -15 -5 -15 4 0 16 11 27 25 11 14 29 24 41 24 22 -2 22 -2 -1 -6 -13 -3
-19 -9 -16 -15 4 -6 2 -8 -3 -5 -6 4 -13 -2 -16 -13 -3 -11 -2 -18 3 -15 11 7
31 -20 22 -30 -4 -5 -1 -5 6 -1 11 7 10 11 -2 25 -14 15 -13 18 6 30 18 11 23
10 42 -9 11 -13 16 -20 11 -17 -6 3 -12 -4 -12 -16 -2 -17 0 -19 7 -7 9 14 14
7 11 -13 -1 -5 3 -6 9 -2 6 3 8 11 5 16 -4 5 1 9 10 9 10 0 13 -5 9 -12 -4 -6
-3 -8 4 -4 6 3 13 2 17 -4 4 -6 11 -7 17 -4 7 5 9 1 5 -9 -3 -9 -2 -19 4 -22
5 -4 9 -3 8 2 -3 17 1 33 9 32 19 -3 33 2 27 10 -9 15 13 23 32 12 11 -6 13
-11 5 -11 -7 0 -10 -5 -6 -12 5 -7 11 -5 21 7 7 11 13 13 13 6 0 -7 5 -9 13
-5 8 6 8 3 -1 -9 -10 -12 -11 -21 -3 -34 6 -10 11 -12 11 -5 0 15 40 16 40 1
0 -6 9 -8 21 -4 14 5 19 3 15 -3 -3 -6 -1 -14 5 -18 8 -4 9 -3 5 4 -4 7 -3 12
3 12 5 0 12 -8 14 -17 4 -17 5 -17 6 0 1 16 4 16 28 4 16 -8 34 -12 42 -9 9 3
11 0 6 -8 -5 -8 -4 -11 3 -6 6 4 9 13 6 21 -3 7 4 19 16 25 15 8 20 8 16 1 -7
-10 5 -15 31 -12 6 1 14 -3 18 -9 10 -16 23 -12 27 8 3 14 5 14 9 -4 5 -18 2
-20 -27 -20 -18 0 -31 3 -29 7 2 3 -2 6 -9 6 -18 0 -8 -27 10 -28 55 -3 85 -1
91 6 5 4 3 5 -3 2 -6 -3 -11 1 -11 9 0 10 3 12 11 4 14 -14 15 -33 1 -43 -6
-6 -3 -7 7 -4 9 3 24 -3 34 -14 9 -10 22 -19 28 -19 6 0 0 9 -13 19 -24 18
-24 19 -4 29 23 13 34 7 26 -14 -4 -11 1 -14 22 -10 20 4 25 2 21 -10 -3 -7
-1 -14 4 -14 6 0 10 7 10 15 0 8 5 15 11 15 5 0 8 -4 5 -9 -3 -5 2 -8 12 -7 9
0 16 -5 14 -12 -1 -8 2 -11 8 -7 12 7 -7 41 -24 43 -6 0 -21 3 -34 6 -12 3
-20 1 -18 -3 3 -4 0 -8 -7 -8 -7 0 -13 8 -13 18 0 10 2 16 5 14 2 -3 10 0 18
7 11 8 12 7 7 -6 -8 -21 15 -18 33 4 10 12 11 11 7 -10 -5 -20 -3 -22 5 -10
10 13 11 13 11 0 1 -11 6 -8 20 9 11 13 20 19 20 14 0 -5 -5 -14 -12 -21 -9
-9 -9 -12 0 -12 6 0 16 8 21 18 6 10 11 12 11 4 0 -8 5 -10 13 -6 10 6 10 4 0
-7 -23 -24 -12 -65 11 -42 18 18 72 -10 59 -30 -3 -6 -1 -7 6 -3 8 5 5 16 -9
37 -21 28 -49 42 -34 17 4 -7 4 -10 -1 -6 -4 4 -14 3 -22 -3 -21 -18 -15 -2 8
20 22 20 22 20 40 -2 l19 -22 -5 30 c-5 29 -5 29 5 5 6 -13 16 -28 23 -33 8
-6 5 -7 -7 -3 -19 7 -19 6 -3 -12 15 -16 32 -20 70 -13 4 0 7 8 7 17 0 8 5 12
10 9 6 -4 8 -10 5 -15 -3 -5 0 -12 6 -15 5 -4 8 -14 4 -22 -5 -14 -3 -14 11
-2 10 8 12 15 5 17 -6 2 -9 8 -6 12 8 13 57 1 79 -18 12 -10 16 -11 11 -3 -5
9 -3 12 6 9 8 -3 13 -11 11 -18 -2 -10 0 -11 10 -3 7 6 21 9 31 8 9 -2 15 1
11 6 -3 5 0 9 6 9 6 0 8 5 4 11 -5 8 -10 6 -16 -5 -5 -9 -14 -14 -20 -10 -7 4
-6 9 2 14 8 5 7 9 -5 13 -9 4 -14 3 -11 -1 3 -5 -8 -8 -24 -8 -16 0 -27 3 -24
7 2 5 -4 6 -15 4 -15 -3 -19 1 -15 13 5 14 2 13 -10 -2 -9 -11 -16 -15 -16 -9
0 13 30 39 30 27 0 -5 5 -2 11 6 8 12 9 10 4 -9 -5 -17 -4 -21 5 -16 7 4 16 1
21 -6 8 -12 10 -12 18 0 6 10 13 11 29 2 12 -6 23 -7 26 -2 4 5 3 11 -1 14 -5
2 -1 2 7 -1 8 -3 23 -4 32 -4 10 0 20 -4 24 -9 4 -6 11 -6 20 2 12 10 17 9 27
0 9 -10 8 -11 -8 -6 -16 5 -17 5 -5 -4 8 -5 11 -13 7 -18 -5 -4 -11 -3 -15 3
-4 6 -17 10 -29 9 -13 -1 -20 3 -16 9 4 7 1 6 -7 -1 -9 -8 -9 -16 -1 -30 10
-17 10 -17 11 0 0 9 5 17 11 17 5 0 7 -4 4 -10 -4 -6 1 -7 11 -3 12 5 15 3 9
-6 -6 -10 -3 -11 14 -2 11 7 21 16 21 22 0 6 5 7 12 3 6 -4 8 -3 5 3 -4 6 0
19 8 29 12 15 14 16 9 2 -5 -14 -1 -16 21 -12 19 3 24 1 19 -7 -4 -7 -2 -10 7
-7 8 3 13 14 11 24 -3 16 0 15 14 -5 16 -23 18 -23 31 -6 12 17 13 17 13 2 0
-9 5 -17 11 -17 5 0 7 5 3 12 -4 6 -3 8 4 4 6 -3 13 -2 17 4 3 5 12 10 18 10
7 0 4 -5 -5 -11 -10 -5 -15 -16 -12 -24 4 -8 1 -15 -6 -15 -6 0 -9 3 -6 8 2 4
-11 8 -30 8 -33 0 -44 -9 -24 -21 6 -3 10 -1 10 4 0 6 5 11 10 11 7 0 7 -7 0
-22 -10 -22 -10 -22 4 -4 8 10 20 15 26 11 13 -8 42 14 34 26 -3 5 2 6 11 3
12 -5 13 -10 6 -17 -14 -14 -14 -37 -1 -37 5 0 6 7 3 17 -5 12 -3 14 7 8 8 -5
11 -4 6 3 -3 6 -2 13 4 17 9 6 15 -9 10 -30 -1 -5 8 -1 19 9 11 10 18 24 15
30 -3 6 5 0 17 -14 18 -21 21 -22 15 -5 -12 32 -12 37 2 40 7 2 8 1 2 -2 -15
-7 -2 -23 15 -17 8 4 12 11 8 18 -4 6 5 3 20 -6 14 -10 37 -18 49 -18 17 0 19
3 9 9 -7 5 -9 11 -5 14 5 3 15 -1 21 -8 10 -11 8 -15 -10 -21 -12 -5 -25 -7
-29 -6 -4 1 -12 -8 -18 -21 -9 -19 -9 -20 2 -6 7 9 25 15 40 15 14 -1 24 2 22
6 -8 13 11 9 25 -5 11 -10 11 -8 1 11 -13 27 -6 42 12 24 17 -17 26 -15 31 6
4 16 5 16 6 -1 0 -10 5 -15 11 -12 6 4 7 -1 3 -12 -6 -16 -5 -17 11 -4 16 14
16 16 2 27 -20 14 -20 21 -1 21 8 0 13 -2 10 -5 -2 -2 3 -11 11 -19 18 -19 32
-9 15 10 -9 11 -7 17 6 28 16 13 17 12 4 -3 -11 -15 -11 -19 3 -24 9 -3 14
-10 11 -14 -3 -5 4 -8 15 -7 22 1 27 13 8 20 -10 4 -10 6 0 6 7 1 10 6 6 13
-4 6 -3 8 3 5 15 -10 10 -52 -6 -52 -18 0 -26 -21 -12 -30 7 -4 8 1 4 12 -6
16 -4 16 18 -2 18 -15 20 -16 10 -2 -12 15 -11 17 7 17 14 0 20 -5 16 -14 -3
-8 -2 -16 3 -19 4 -3 8 8 8 24 1 22 -3 28 -15 24 -8 -3 -5 3 8 13 19 14 20 20
10 32 -11 12 -11 12 5 1 9 -8 15 -16 12 -19 -3 -3 1 -12 8 -20 10 -13 9 -14
-2 -7 -10 6 -12 4 -6 -5 5 -9 4 -11 -3 -6 -8 5 -10 1 -5 -10 5 -15 7 -15 15 0
5 9 14 13 21 9 37 -23 57 -3 25 26 -12 12 -17 21 -10 21 6 0 14 -4 17 -10 4
-6 16 -3 33 8 14 9 23 11 19 5 -5 -7 -4 -13 2 -13 10 0 15 14 12 32 0 4 7 4
16 1 10 -4 12 -8 6 -10 -7 -3 -9 -11 -6 -19 3 -8 2 -14 -3 -13 -23 4 -33 -3
-31 -21 1 -11 5 -20 10 -20 5 0 7 6 4 14 -3 8 -3 16 0 19 8 9 32 -17 25 -27
-3 -5 0 -6 7 -2 9 6 9 11 0 22 -13 16 2 19 17 4 6 -6 14 -2 23 13 13 20 13 21
-2 9 -9 -8 -21 -11 -26 -8 -12 8 -3 36 11 36 5 0 6 -5 3 -11 -4 -6 0 -9 11 -7
12 2 19 -3 18 -13 -1 -11 5 -14 22 -11 13 2 24 8 24 13 0 5 -7 6 -15 3 -9 -4
-15 0 -15 10 0 9 -5 16 -12 16 -6 0 -8 3 -5 6 4 4 17 0 29 -8 24 -14 62 -13
53 2 -10 16 12 20 31 5 16 -11 17 -16 6 -27 -11 -11 -12 -10 -7 5 4 10 2 17
-5 17 -6 0 -9 -4 -5 -9 3 -5 0 -13 -6 -17 -8 -5 -9 -3 -4 7 7 11 6 12 -7 2 -8
-7 -17 -11 -20 -8 -2 3 -5 -1 -5 -9 0 -14 13 -16 32 -5 6 4 18 5 28 3 11 -1
16 0 13 3 -3 3 2 12 12 20 9 8 11 12 5 8 -7 -3 -13 -1 -13 5 0 7 7 9 16 6 9
-4 23 -1 31 5 10 9 17 9 25 1 7 -7 21 -12 33 -12 16 0 17 -2 5 -10 -12 -8 -9
-10 10 -8 16 2 24 -2 22 -10 -1 -8 2 -11 8 -7 8 5 7 11 -1 21 -14 17 2 19 20
2 8 -7 11 -8 9 -3 -12 21 30 44 43 23 7 -10 11 -8 15 10 4 12 10 22 15 22 5 0
8 -3 7 -7 -2 -5 0 -9 5 -10 16 -6 27 -2 27 8 0 8 -6 7 -17 -2 -15 -13 -15 -12
-3 8 8 13 20 19 29 15 13 -4 13 -2 -1 15 -10 11 -18 24 -18 29 0 5 5 1 11 -9
6 -9 15 -14 21 -11 7 4 8 2 4 -4 -4 -7 -1 -12 8 -12 9 0 16 -5 16 -10 0 -6 -3
-9 -7 -9 -21 3 -29 -3 -30 -24 0 -12 1 -16 4 -9 3 6 9 10 14 7 5 -4 6 2 2 12
-3 10 -3 15 2 11 13 -12 34 12 28 30 -4 13 -2 12 10 -3 8 -11 12 -22 8 -25 -9
-7 -8 -27 3 -37 5 -4 6 -3 3 4 -4 6 -1 18 8 26 8 8 12 24 10 36 -2 12 0 19 5
16 4 -3 11 1 14 7 3 7 4 4 3 -6 -1 -10 3 -21 10 -23 12 -4 11 26 -1 45 -3 5 1
9 8 9 8 0 12 -7 9 -14 -3 -8 -2 -13 3 -12 5 1 17 -1 28 -6 11 -5 26 -3 37 3
25 16 34 15 20 -2 -8 -10 -9 -16 -1 -21 10 -6 11 -5 14 14 2 14 16 26 16 14 0
-5 6 -10 14 -10 19 0 13 27 -9 43 -26 19 -10 17 20 -2 14 -9 25 -13 25 -9 0 4
7 2 16 -6 13 -10 17 -10 24 0 6 11 9 11 13 0 3 -8 5 -4 3 9 -1 13 -8 27 -16
32 -8 5 -1 7 19 6 32 -1 47 -20 34 -40 -5 -7 1 -2 12 11 21 24 42 32 29 11 -4
-7 -3 -8 4 -4 6 4 9 13 5 21 -4 11 -1 13 11 9 9 -3 13 -11 9 -17 -4 -6 -1 -7
6 -3 9 6 9 12 -3 25 -9 10 -16 21 -16 26 0 5 6 1 13 -8 14 -20 54 -30 62 -16
4 5 10 7 14 5 3 -3 7 4 7 14 0 10 -4 17 -7 14 -4 -2 -10 -1 -13 4 -2 4 4 9 15
9 11 1 19 -4 18 -10 -1 -7 -1 -19 0 -27 1 -12 4 -11 12 3 9 15 13 16 26 5 15
-12 15 -11 2 10 -8 12 -17 22 -21 22 -5 0 -8 5 -8 11 0 8 5 8 15 -1 8 -7 15
-9 15 -5 0 4 11 0 24 -8 19 -13 27 -14 48 -3 18 10 31 10 44 3 10 -5 16 -6 12
-2 -4 4 -3 16 3 26 7 15 6 17 -6 13 -8 -3 -12 -10 -9 -15 3 -6 -6 -8 -20 -5
-16 3 -24 1 -20 -5 3 -6 -5 -8 -20 -6 -33 4 -37 16 -11 31 11 6 23 15 27 21 4
5 11 6 15 1 4 -5 2 -11 -5 -13 -6 -3 -10 -9 -7 -13 3 -5 12 -7 20 -4 8 4 12
10 9 15 -3 5 2 6 11 3 9 -4 15 -2 13 4 -2 5 2 10 7 11 6 1 10 -3 10 -8 0 -14
13 -25 34 -26 13 -1 17 4 13 17 -4 18 -5 18 -18 1 -13 -17 -13 -17 -14 0 0 15
10 21 32 19 3 -1 9 5 12 13 6 18 5 18 -27 6 -20 -8 -23 -6 -22 10 1 10 5 22 9
26 4 5 6 1 4 -7 -5 -22 79 -20 99 2 9 10 20 15 26 11 5 -3 16 1 22 11 12 15
13 15 18 -4 3 -11 1 -17 -5 -14 -5 3 -18 -2 -29 -12 -19 -17 -20 -17 -13 2 7
17 6 18 -10 5 -11 -9 -14 -17 -7 -24 7 -7 15 -6 26 3 12 10 18 10 32 -1 11
-10 14 -10 9 -1 -4 7 -2 12 4 12 7 0 10 6 7 14 -3 8 1 22 8 33 9 11 14 13 15
5 0 -7 4 -11 9 -7 6 3 14 -3 20 -12 6 -10 11 -12 11 -5 0 6 5 12 11 12 5 0 7
-5 3 -12 -4 -7 -3 -8 5 -4 6 4 9 11 6 16 -3 5 -1 11 5 15 5 3 10 1 10 -5 0 -6
4 -8 10 -5 6 3 10 -1 10 -9 0 -8 4 -17 9 -20 5 -4 7 3 4 15 -3 11 -12 23 -19
26 -8 3 -14 9 -14 15 0 5 5 6 12 2 7 -5 9 -2 5 9 -4 12 -2 14 10 10 11 -4 14
-2 9 5 -5 8 -2 10 9 6 11 -5 14 -2 9 10 -3 9 -11 13 -17 9 -5 -3 -7 -1 -4 5 8
12 32 10 44 -3 4 -4 2 -5 -4 -1 -13 7 -18 -6 -6 -17 12 -13 34 15 23 28 -8 9
-6 14 4 18 9 4 13 1 10 -6 -2 -7 4 -13 16 -14 12 -1 18 2 14 9 -4 7 -2 8 4 4
11 -7 17 6 13 27 -1 5 3 6 8 3 5 -4 14 1 19 11 9 14 10 13 9 -9 -1 -16 -7 -24
-14 -21 -7 3 -13 -1 -13 -8 0 -7 3 -9 6 -6 4 3 15 2 26 -4 17 -9 18 -8 9 9 -8
15 -6 23 9 37 23 21 39 13 20 -10 -7 -8 -17 -12 -24 -8 -6 3 -2 -3 8 -15 22
-26 35 -30 15 -5 -12 14 -12 16 2 11 9 -3 22 -2 30 4 11 8 10 9 -5 4 -14 -5
-17 -2 -12 10 3 8 6 18 6 20 0 2 5 4 11 4 5 0 8 -4 5 -9 -6 -10 24 -25 32 -16
3 3 0 5 -6 5 -7 0 -12 8 -12 18 0 10 -5 23 -12 30 -9 9 -9 12 0 12 7 0 12 -4
12 -10 0 -5 5 -10 11 -10 6 0 9 7 6 15 -4 8 -1 17 5 21 6 4 8 3 5 -3 -4 -6 0
-14 9 -17 25 -10 27 -7 13 12 -13 15 -12 16 3 4 11 -9 18 -10 23 -2 3 5 0 10
-7 10 -8 0 -6 5 5 11 10 6 21 8 24 5 3 -3 14 -1 24 5 15 7 17 6 13 -5 -3 -9
-15 -13 -32 -11 -15 2 -21 2 -14 -1 8 -4 5 -12 -13 -26 -14 -10 -29 -17 -34
-14 -10 7 -33 -18 -25 -27 4 -3 16 1 29 9 12 8 31 12 41 8 15 -5 16 -4 4 5 -8
5 -11 13 -7 17 3 4 15 1 24 -7 16 -13 17 -12 5 3 -9 11 -10 18 -2 23 5 3 10 0
10 -7 0 -8 4 -7 11 4 5 9 15 16 22 14 6 -1 9 -1 5 1 -19 11 -6 23 12 13 11 -6
18 -15 15 -20 -3 -5 -1 -11 4 -14 10 -7 9 13 -2 31 -4 6 -3 14 3 18 5 3 10 0
10 -7 0 -9 3 -9 10 2 9 13 10 13 11 0 1 -8 1 -19 0 -23 -1 -5 3 -6 9 -2 7 4 7
12 0 25 -7 13 -7 21 0 25 5 3 10 2 10 -3 0 -5 6 -9 14 -9 9 0 13 9 11 24 -1
12 4 28 12 35 11 9 12 13 1 21 -9 6 -8 7 5 3 9 -3 33 4 53 15 19 10 33 15 29
9 -3 -5 -2 -10 4 -10 5 0 11 -8 13 -17 3 -15 5 -14 10 5 3 12 2 20 -3 16 -5
-3 -9 6 -9 19 0 18 8 28 30 37 16 7 27 17 23 23 -3 5 -1 7 5 3 5 -3 13 0 16 6
2 7 3 2 2 -12 -3 -18 -9 -24 -22 -22 -16 2 -17 1 -4 -7 8 -6 10 -11 4 -11 -16
0 -26 -28 -13 -35 5 -4 9 -3 8 2 -4 20 2 27 12 13 9 -13 10 -13 6 2 -6 18 17
43 31 34 5 -3 9 1 9 9 0 8 -3 12 -7 10 -3 -2 -7 6 -7 18 -2 16 0 18 6 8 5 -8
24 -15 43 -16 18 -2 25 -1 15 2 -9 2 -15 9 -11 14 3 5 10 7 15 4 5 -3 18 3 30
14 12 11 26 18 32 14 5 -3 3 -9 -4 -14 -11 -7 -11 -9 -1 -9 7 0 10 -5 6 -12
-4 -6 -3 -8 4 -5 9 6 9 27 2 47 -1 3 -2 9 0 15 1 5 -7 2 -17 -6 -21 -18 -52
-36 -41 -24 4 4 3 14 -3 22 -9 9 -8 13 0 13 6 0 11 -4 11 -10 0 -5 5 -10 11
-10 6 0 9 7 6 14 -4 10 -1 13 7 10 15 -6 38 19 34 36 -3 11 16 19 50 22 6 1
12 5 12 9 0 4 -6 10 -12 12 -10 4 -10 6 -1 6 6 1 15 -4 19 -10 7 -12 -11 -34
-29 -34 -7 0 -13 -4 -14 -9 -1 -5 -7 -13 -15 -17 -10 -7 -10 -9 2 -9 13 0 13
-1 0 -10 -8 -5 -11 -12 -7 -16 12 -12 22 7 26 49 1 11 25 4 38 -13 10 -13 11
-12 10 4 -1 11 7 25 19 31 12 6 28 16 36 23 8 6 19 8 23 4 5 -4 6 -2 3 3 -3 6
0 16 8 23 8 7 14 10 14 6 0 -3 6 -1 13 5 8 6 17 7 22 3 4 -4 2 3 -6 15 -7 12
-17 19 -22 16 -5 -3 -4 -9 3 -13 8 -5 8 -10 2 -14 -5 -3 -13 2 -17 11 -3 10
-1 19 4 21 6 2 8 9 5 15 -5 9 -4 9 6 0 13 -12 40 -7 40 8 0 4 -7 6 -15 3 -17
-7 -21 21 -5 31 6 3 7 -1 4 -10 -4 -9 -3 -15 2 -14 28 5 34 -1 24 -21 -6 -11
-15 -18 -21 -15 -15 10 -10 -1 7 -15 8 -8 14 -9 12 -4 -1 5 4 19 11 32 10 20
10 26 -1 35 -7 7 -11 11 -9 10 2 -2 10 2 18 9 10 8 17 8 26 -1 9 -10 8 -11 -5
-6 -18 7 -25 -5 -11 -18 8 -9 43 22 43 37 0 6 -4 5 -9 -2 -7 -11 -9 -10 -14 3
-4 9 -3 14 2 11 5 -3 14 8 20 25 6 17 15 28 21 24 5 -3 10 -8 10 -11 0 -3 -4
-2 -10 1 -5 3 -10 -1 -10 -9 0 -9 6 -15 13 -14 19 4 27 21 16 35 -7 8 -7 18 1
30 9 16 10 15 4 -6 -4 -17 -3 -21 6 -16 9 5 11 4 6 -3 -4 -7 -1 -12 7 -12 10
0 14 -7 11 -22 -5 -23 -5 -23 6 0 6 14 15 20 21 16 8 -4 9 -3 5 4 -6 11 12 17
37 13 4 0 7 3 7 9 0 12 -43 8 -52 -5 -5 -6 -8 -4 -8 5 0 12 -2 12 -9 2 -7 -11
-9 -10 -14 3 -4 10 -3 14 4 9 7 -4 9 0 5 14 -4 12 -2 23 5 28 7 4 9 3 6 -4 -9
-13 2 -44 14 -37 4 3 6 13 3 23 -5 14 -4 14 4 2 6 -8 8 -19 4 -25 -3 -5 1 -4
9 2 9 7 25 11 38 8 12 -2 19 0 16 4 -7 12 20 32 31 23 4 -4 3 0 -4 10 -9 11
-10 18 -2 23 5 3 10 0 10 -7 0 -8 5 -6 11 5 7 13 17 16 32 11 26 -8 21 -2 -12
16 -19 10 -22 9 -16 -1 6 -8 4 -10 -5 -4 -9 6 -11 4 -5 -6 5 -8 5 -11 0 -7 -4
4 -15 2 -23 -5 -13 -10 -14 -9 -8 2 6 9 5 12 -3 10 -7 -3 -12 -8 -11 -13 1 -5
-4 -13 -12 -18 -8 -6 -5 -7 12 -2 l25 7 -20 -22 c-18 -21 -20 -21 -25 -5 -6
17 -7 17 -18 -1 -10 -19 -11 -19 -9 2 0 12 4 20 8 17 4 -2 17 12 30 31 25 37
43 47 32 18 -6 -16 -5 -16 10 -4 9 7 14 18 10 24 -3 5 -2 8 3 4 5 -3 18 1 29
9 10 8 15 14 10 14 -5 0 1 7 13 16 19 13 21 18 10 32 -9 12 -6 11 10 -2 22
-19 32 -10 12 10 -7 7 -2 14 15 22 15 7 24 8 21 3 -3 -5 1 -15 10 -22 13 -11
17 -10 25 4 6 10 16 14 27 10 14 -5 13 -2 -3 11 -16 14 -17 17 -3 12 12 -3 15
-1 11 10 -5 13 -8 13 -24 -2 -10 -9 -16 -20 -14 -25 3 -4 1 -10 -5 -14 -5 -3
-10 3 -10 14 0 12 5 21 10 21 7 0 7 7 0 23 -10 20 -10 20 3 5 8 -10 17 -15 20
-11 4 3 2 12 -4 20 -9 9 -8 13 0 13 6 0 11 -4 11 -10 0 -5 5 -10 10 -10 12 0
9 22 -5 33 -6 4 -1 7 10 5 14 -2 20 2 19 14 -1 14 2 16 17 7 11 -5 19 -12 19
-15 0 -3 -5 -2 -11 2 -7 4 -7 -2 1 -17 18 -34 24 -38 15 -11 -5 16 -3 22 7 20
7 -2 12 3 10 10 -1 6 2 12 8 12 5 0 7 7 4 15 -4 8 -10 13 -14 10 -14 -9 -23
16 -11 28 9 9 11 8 6 -5 -4 -10 -4 -18 -1 -18 4 0 10 10 15 22 l8 22 5 -22 c4
-12 2 -20 -3 -16 -14 9 -10 -2 6 -16 12 -10 14 -8 10 12 -4 23 -4 23 11 3 l16
-20 -4 20 c-2 16 2 19 22 17 l25 -2 -27 17 c-22 16 -24 21 -14 36 7 9 18 17
24 17 6 0 9 9 7 20 -2 11 0 20 6 20 5 0 9 -5 9 -11 0 -5 5 -7 10 -4 6 4 8 10
6 14 -3 4 0 13 6 21 8 13 9 12 5 -2 -3 -9 0 -21 7 -27 10 -9 13 -6 10 15 -1
14 1 23 4 19 4 -4 7 -12 7 -17 0 -6 7 -13 15 -15 12 -4 12 -3 2 5 -8 5 -13 12
-13 16 3 20 -1 26 -13 26 -8 0 -18 4 -21 10 -7 11 23 2 42 -12 7 -6 14 -5 18
3 6 8 10 7 16 -2 5 -8 9 -9 10 -4 2 19 6 50 9 60 5 21 0 36 -12 29 -7 -4 -8
-3 -4 4 5 8 13 9 26 2 14 -7 19 -6 24 6 4 12 2 15 -9 11 -8 -4 -17 -2 -20 4
-4 5 -3 9 2 8 28 -5 35 1 22 19 -12 14 -10 14 8 -2 21 -17 21 -20 6 -42 -8
-13 -20 -21 -27 -17 -6 3 -8 3 -4 -2 4 -4 3 -15 -2 -25 -6 -12 -5 -17 4 -17 7
0 13 7 12 16 -1 10 7 16 21 16 12 0 25 4 30 8 4 5 2 7 -6 5 -7 -1 -16 3 -19
11 -3 8 0 11 6 7 7 -4 10 1 7 12 -3 15 2 18 21 16 14 -1 21 2 18 8 -3 5 -12 7
-20 4 -8 -3 -14 -1 -14 4 0 6 5 10 11 10 5 0 7 6 3 12 -4 7 3 4 16 -7 13 -11
20 -14 16 -8 -4 8 -1 13 8 13 17 0 21 12 9 23 -10 11 -12 56 -2 62 5 3 6 -2 2
-11 -5 -13 -3 -15 7 -9 9 6 11 4 5 -5 -5 -9 -4 -11 4 -6 6 4 11 13 10 19 -3
24 1 37 12 37 8 0 7 -6 -2 -17 -8 -10 -9 -14 -2 -10 7 4 16 0 22 -10 6 -10 11
-13 11 -7 0 5 -5 15 -11 21 -8 8 -6 15 8 24 23 18 30 51 9 43 -9 -3 -12 -12
-9 -22 7 -18 5 -17 -17 11 -7 10 -9 17 -4 16 20 -3 35 2 29 10 -3 5 0 13 6 17
7 4 9 3 5 -4 -3 -6 -2 -13 3 -16 5 -3 12 1 15 9 3 9 -1 18 -9 21 -8 4 -15 11
-15 16 0 6 8 4 17 -3 15 -12 16 -12 10 4 -4 10 -3 16 3 12 5 -3 18 0 29 7 18
11 23 10 36 -7 16 -19 16 -19 5 3 -12 24 -2 29 19 10 11 -10 12 -10 7 -1 -4 7
-16 18 -28 24 -16 9 -19 8 -13 -3 7 -11 5 -11 -6 0 -10 9 -10 15 -3 20 6 4 14
14 17 22 4 13 6 12 6 -1 1 -9 9 -23 18 -30 15 -12 16 -12 8 1 -5 8 -10 20 -11
25 -1 6 -4 17 -6 25 -3 8 -3 12 -1 8 3 -5 9 -8 14 -8 6 0 7 5 4 10 -7 11 8 14
18 3 4 -3 -1 -12 -11 -19 -9 -8 -12 -14 -5 -14 6 0 15 5 18 10 4 6 10 8 15 5
4 -3 3 6 -3 19 -7 13 -16 22 -22 18 -5 -3 -4 1 2 10 7 8 11 17 8 19 -2 3 5 5
16 5 19 0 19 -1 3 -13 -11 -8 -13 -13 -5 -13 7 0 9 -4 6 -10 -3 -6 1 -7 10 -3
13 5 14 7 3 14 -12 8 -11 10 11 13 5 0 13 5 18 10 4 5 3 6 -3 3 -7 -4 -15 0
-18 9 -3 9 -11 12 -18 8 -10 -6 -10 -4 0 8 8 9 20 14 29 11 12 -5 12 -7 1 -14
-7 -5 -9 -9 -5 -9 5 0 20 9 34 20 14 11 21 20 14 20 -6 0 -11 5 -11 11 0 5 4
8 9 4 5 -3 12 -1 15 4 4 5 -2 8 -11 6 -10 -2 -21 -4 -26 -4 -4 -1 -6 -5 -5
-10 4 -12 -16 -15 -20 -3 -2 6 6 13 17 17 11 3 20 11 18 18 -1 6 7 12 18 14
l20 3 -20 -9 c-17 -8 -17 -10 -3 -10 10 -1 22 8 28 19 6 12 17 17 28 14 13 -5
14 -4 3 4 -9 7 -10 12 -2 16 6 4 9 12 6 17 -4 5 2 9 12 9 15 0 16 2 3 10 -16
10 -33 -7 -23 -24 4 -5 1 -6 -7 -1 -8 5 -11 4 -6 -3 6 -11 -9 -25 -31 -28 -6
-1 -9 5 -6 13 4 11 8 11 13 3 5 -8 10 -9 14 -2 3 6 2 13 -4 17 -5 3 -10 12
-10 18 0 7 4 6 10 -3 8 -13 11 -11 16 7 5 18 11 22 29 17 17 -4 25 -1 29 14 4
11 16 22 27 25 19 5 20 7 5 36 -18 35 -19 41 -7 41 5 0 11 -9 14 -20 3 -11 11
-20 19 -20 11 0 11 2 0 9 -8 5 -12 21 -11 37 2 16 0 34 -3 40 -4 6 4 9 23 8
18 -1 26 2 23 8 -4 6 -1 8 7 6 8 -3 13 -11 11 -17 -1 -7 2 -10 8 -6 6 4 5 13
-2 25 -10 16 -15 17 -28 6 -28 -25 -41 -6 -15 22 13 14 21 30 18 36 -4 6 0 5
9 -2 13 -10 18 -8 32 12 20 32 21 42 1 26 -9 -7 -18 -10 -22 -7 -3 4 2 9 11
13 9 3 13 10 10 15 -8 14 3 11 19 -6 13 -13 16 -13 21 1 3 8 2 12 -3 9 -16 -9
-23 13 -11 35 8 15 8 20 -2 21 -7 0 -3 5 10 11 18 9 25 8 37 -8 15 -19 15 -19
8 0 -5 15 -3 17 8 11 11 -7 12 -6 2 7 -7 8 -10 18 -6 21 3 4 12 -1 20 -11 13
-15 13 -15 3 5 -6 13 -14 22 -18 22 -4 -1 -14 -1 -22 0 -12 1 -11 4 3 12 9 6
14 15 11 21 -4 7 -2 8 4 4 11 -7 17 14 12 39 -1 6 2 7 6 3 4 -4 13 -3 21 3 18
15 17 1 -2 -17 -15 -16 -10 -48 7 -38 6 4 5 10 -3 15 -12 8 -6 13 12 11 3 -1
6 9 5 21 -1 15 -7 21 -21 20 -20 -1 -20 -1 -1 13 14 10 16 14 5 14 -8 1 -3 7
10 14 18 10 20 15 10 19 -9 3 -10 6 -2 6 7 1 10 8 7 19 -5 13 -4 14 4 3 11
-15 27 2 18 18 -7 11 13 9 32 -3 11 -7 11 -4 1 12 -7 12 -17 18 -22 15 -5 -3
-4 4 2 16 7 12 9 26 6 31 -3 6 -4 10 -1 10 3 0 10 -10 17 -21 9 -17 8 -20 -3
-14 -7 3 -5 0 4 -8 10 -8 14 -18 10 -22 -4 -5 -1 -5 6 -1 8 5 9 13 2 26 -5 10
-10 28 -10 40 0 13 -4 19 -12 14 -7 -4 -8 -3 -4 4 4 6 14 8 24 5 15 -6 16 -5
2 12 -9 11 -10 16 -2 11 6 -4 13 -2 13 3 1 6 2 17 3 24 1 6 -3 16 -9 20 -6 5
-2 6 8 3 15 -5 17 -2 12 17 -6 20 -6 20 6 5 10 -12 18 -15 29 -8 8 5 11 12 7
17 -5 4 -13 1 -18 -7 -9 -12 -10 -12 -5 3 3 10 0 17 -7 17 -8 0 -8 3 2 9 7 5
11 14 7 20 -5 7 -1 9 9 5 13 -5 13 -9 3 -23 -7 -9 -8 -13 -4 -9 5 4 15 3 23
-3 9 -9 13 -8 13 0 0 6 -4 11 -8 11 -4 0 -7 16 -7 35 0 38 4 42 23 23 8 -8 12
-8 12 -1 0 6 -7 13 -15 17 -17 6 -20 26 -4 26 5 0 8 -4 5 -8 -2 -4 4 -9 15 -9
19 -2 18 -1 -2 16 -17 14 -19 20 -9 26 9 6 11 4 5 -5 -5 -9 -4 -11 3 -6 17 10
15 24 -5 29 -16 4 -16 5 1 6 16 1 17 3 5 18 -10 11 -10 14 -1 9 6 -4 12 -2 12
3 0 6 5 11 11 11 6 0 7 -5 2 -12 -12 -21 -12 -35 2 -35 7 0 12 7 10 16 -1 9 3
22 9 30 8 11 8 13 -1 7 -9 -5 -13 -1 -13 11 0 15 -2 16 -10 3 -6 -9 -10 -10
-10 -3 0 6 5 15 10 18 6 4 8 10 6 14 -3 4 1 8 9 8 11 0 12 -4 4 -13 -7 -8 -6
-14 2 -20 7 -4 9 -3 5 4 -3 6 2 15 11 21 10 6 13 11 6 11 -8 0 -10 7 -6 18 6
15 5 16 -13 2 -19 -14 -19 -14 1 8 17 20 17 26 5 45 -12 21 -12 21 5 7 17 -14
18 -13 12 2 -3 10 -1 20 4 24 6 3 8 18 4 33 -6 25 -6 25 8 6 9 -11 12 -24 9
-30 -4 -5 -7 -14 -8 -20 -1 -5 -5 -19 -9 -30 -5 -17 -5 -17 7 2 10 17 17 20
33 12 15 -8 14 -5 -4 9 -25 20 -19 32 12 26 11 -1 16 1 12 4 -4 4 -12 7 -17 7
-6 0 -13 6 -16 14 -3 9 0 11 9 7 8 -4 3 2 -10 13 -13 12 -18 21 -12 21 6 0 8
8 5 17 -5 15 -4 15 4 3 6 -8 8 -18 5 -23 -3 -5 4 -3 16 5 17 10 18 14 6 21 -8
4 -12 14 -9 22 4 8 10 12 15 9 5 -3 6 3 2 13 -6 16 -4 16 18 -2 13 -11 18 -13
11 -4 -6 9 -8 20 -4 24 4 5 1 5 -5 1 -7 -4 -13 -3 -13 3 0 6 -8 8 -17 4 -19
-7 -18 -5 11 17 18 13 19 13 11 0 -8 -13 -7 -13 8 -1 18 14 24 26 8 17 -5 -3
-14 1 -20 8 -9 11 -9 16 0 22 8 4 9 3 5 -4 -4 -7 -2 -12 3 -12 14 0 14 16 1
41 -8 15 -8 19 2 17 7 -2 12 2 11 8 -1 6 9 10 23 8 14 -1 23 1 19 4 -4 4 -12
7 -17 7 -16 0 -16 54 0 73 11 15 12 14 3 -5 -8 -15 -8 -24 -1 -28 6 -4 10 -3
9 2 -4 21 2 34 14 28 6 -4 1 3 -12 14 -18 16 -20 21 -7 21 9 0 16 5 16 11 0 5
-6 7 -12 3 -10 -5 -10 -4 -1 6 6 7 9 20 5 29 -5 14 -3 14 12 -1 9 -10 23 -18
29 -18 7 0 4 5 -5 11 -10 5 -18 15 -18 20 0 6 5 7 12 3 7 -4 8 -3 4 5 -4 6
-11 9 -16 6 -5 -3 -12 0 -16 6 -4 8 -3 9 4 5 7 -4 12 -2 12 5 0 6 8 18 18 26
9 8 11 12 5 8 -7 -3 -13 -2 -13 4 0 5 6 12 13 15 6 4 2 4 -11 2 -12 -2 -20 0
-16 5 3 5 12 9 20 9 11 0 13 6 9 19 -3 11 -2 22 3 25 5 3 8 28 7 55 -1 32 2
48 8 44 7 -4 8 1 3 13 -6 15 -5 16 5 7 10 -10 10 -15 0 -27 -11 -13 -4 -15 27
-7 1 1 -4 15 -13 31 -14 28 -14 30 2 30 17 1 17 1 0 11 -9 6 -15 14 -12 20 4
5 1 9 -5 9 -7 0 -5 7 4 16 9 8 13 20 10 26 -4 7 -2 8 4 4 9 -5 9 -13 2 -27 -7
-13 -7 -19 0 -19 5 0 10 7 10 16 0 8 4 13 8 10 5 -3 9 1 9 9 0 8 -4 12 -8 10
-3 -3 -9 7 -12 20 -4 22 -1 25 16 19 17 -5 18 -4 6 9 -8 8 -18 13 -24 10 -5
-2 -2 2 8 11 17 13 31 75 18 74 -18 -2 -22 4 -12 16 7 8 10 29 8 45 -3 18 -1
29 4 25 5 -3 7 -9 4 -14 -9 -14 16 -23 28 -11 9 9 8 11 -5 6 -12 -5 -16 -2
-13 12 1 10 8 17 15 15 6 -1 9 2 5 8 -3 6 -10 8 -15 5 -4 -3 -7 6 -6 20 0 15
6 23 13 21 12 -5 12 19 -2 31 -4 5 -4 1 0 -7 8 -13 7 -13 -8 -1 -18 15 -23 26
-7 16 6 -3 10 1 10 9 0 9 5 16 10 16 6 0 10 5 10 11 0 5 -4 8 -9 4 -18 -11 -4
46 15 61 16 14 17 15 2 10 -21 -6 -23 4 -5 23 10 11 9 12 -2 6 -10 -6 -12 -2
-7 13 12 37 15 63 7 58 -10 -7 -8 35 3 53 6 10 5 12 -2 7 -7 -4 -12 -2 -12 3
0 6 5 11 10 11 6 0 10 5 10 11 0 5 -4 7 -10 4 -6 -3 -7 1 -4 9 3 9 9 14 13 12
4 -3 13 -1 21 5 13 7 12 9 -1 9 -9 0 -20 7 -23 16 -3 8 -2 12 4 9 6 -3 10 1
10 10 0 10 5 13 12 9 7 -4 8 -3 4 5 -4 6 -12 9 -17 5 -6 -3 -7 4 -3 20 4 16 1
32 -6 41 -11 13 -10 14 6 8 15 -5 17 -4 8 8 -6 8 -10 31 -8 52 2 25 -1 35 -8
31 -7 -5 -8 -2 -3 7 5 7 9 35 10 62 1 30 7 52 16 59 11 8 11 9 -3 5 -9 -3 -19
0 -22 8 -3 10 0 12 12 8 14 -6 15 -4 4 9 -10 13 -10 19 5 34 17 17 17 17 1 11
-19 -7 -22 1 -12 27 3 9 11 13 18 9 6 -3 7 -2 3 3 -5 5 -13 10 -18 10 -5 1
-12 2 -16 3 -4 0 2 8 13 17 10 8 14 13 9 10 -13 -6 -14 39 -1 51 5 5 6 2 1 -6
-5 -10 -4 -12 4 -7 6 4 9 12 5 17 -3 5 -10 6 -16 3 -7 -5 -9 -2 -5 8 3 9 0 21
-6 27 -15 15 6 14 22 -1 11 -11 11 -9 2 10 -25 51 -28 58 -24 70 3 6 10 9 16
5 8 -5 8 -2 0 9 -7 8 -10 18 -6 21 3 4 2 7 -4 7 -5 0 -9 18 -9 39 1 22 -3 37
-8 34 -4 -3 -5 5 -1 17 6 17 4 21 -6 14 -11 -6 -11 -4 0 10 13 15 13 19 0 27
-10 6 -11 9 -1 9 7 0 10 4 7 10 -3 6 0 10 7 10 9 0 10 2 2 8 -15 9 -21 53 -10
71 7 10 5 13 -5 9 -10 -4 -15 3 -16 24 -2 20 1 27 10 21 9 -5 9 -3 1 8 -6 8
-10 24 -9 37 1 12 -3 22 -9 22 -6 0 -4 5 4 10 12 8 12 10 1 10 -8 0 -11 7 -8
19 3 15 1 18 -11 14 -10 -4 -13 -2 -8 5 16 26 16 60 0 66 -14 5 -14 9 -3 23
12 15 12 16 -5 10 -16 -6 -17 -5 -7 7 7 8 10 19 7 25 -6 8 -15 66 -20 121 -2
14 2 31 8 39 9 12 7 12 -11 2 -15 -7 -23 -8 -23 -1 0 5 5 10 12 10 6 0 4 8 -6
19 -17 18 -17 20 1 30 12 7 14 10 4 11 -8 0 -11 3 -8 7 4 3 -1 11 -10 18 -13
9 -13 14 -3 20 9 6 11 4 5 -5 -5 -9 -4 -11 4 -6 9 6 9 11 0 22 -6 7 -15 11
-20 8 -5 -3 -6 2 -3 10 3 9 10 14 14 11 5 -3 12 -1 15 5 4 6 3 10 -2 9 -19 -3
-47 3 -35 8 10 4 10 8 0 21 -11 13 -11 15 2 7 12 -6 12 -5 3 5 -6 7 -9 19 -6
26 3 8 0 14 -7 14 -7 0 -10 8 -7 20 3 11 1 20 -5 20 -5 0 -6 4 -3 10 3 6 1 10
-6 10 -8 0 -8 4 1 15 11 13 8 19 -11 17 -3 -1 -6 5 -6 13 0 8 5 11 10 8 6 -4
7 -1 1 8 -5 8 -10 28 -11 44 -4 49 -6 53 -18 48 -7 -2 -15 5 -18 17 -4 17 -3
19 9 9 23 -19 16 -2 -8 22 -13 12 -18 19 -12 16 7 -4 9 2 6 18 -2 14 -8 22
-13 19 -5 -3 -6 2 -3 10 4 10 1 16 -7 16 -12 0 -12 2 -1 9 11 7 11 9 0 14 -8
2 -14 18 -13 33 0 16 -3 32 -8 35 -5 4 -10 18 -10 32 -1 14 -5 23 -8 21 -9 -5
-20 26 -13 37 3 5 0 9 -6 9 -7 0 -10 7 -6 15 3 8 1 15 -5 15 -6 0 -7 5 -4 10
3 6 1 10 -6 10 -8 0 -7 5 2 17 10 11 10 14 2 9 -8 -4 -13 -2 -13 4 0 6 -5 8
-12 4 -9 -5 -9 -2 1 9 9 11 10 17 2 17 -6 0 -10 3 -10 8 4 24 -2 42 -13 36 -8
-5 -9 0 -6 14 5 16 2 22 -10 22 -13 0 -14 2 -4 9 11 6 10 10 -3 15 -13 5 -15
9 -6 20 9 11 7 15 -11 20 -22 7 -22 7 -3 15 19 8 19 8 -3 15 -20 7 -21 10 -10
24 7 10 9 14 4 10 -5 -4 -15 -1 -22 7 -17 17 -18 29 -1 19 6 -4 3 3 -8 16 -11
13 -14 20 -7 16 6 -4 12 -2 12 3 0 6 -7 11 -16 11 -8 0 -13 4 -10 9 3 4 -3 19
-14 31 -22 25 -26 35 -10 25 6 -3 7 1 4 10 -4 9 -13 14 -20 11 -7 -3 -16 0
-20 6 -4 6 -3 8 3 5 6 -4 13 0 17 8 3 8 2 14 -2 14 -19 -3 -25 2 -12 11 10 7
11 10 2 10 -12 0 -37 47 -33 63 1 5 -3 6 -8 3 -5 -4 -12 -2 -16 4 -3 5 0 10 7
10 9 1 7 5 -4 14 -10 7 -18 21 -18 30 0 9 -3 16 -7 16 -5 0 -13 11 -20 25 -6
14 -7 23 -2 19 5 -3 9 0 9 5 0 6 -7 11 -16 11 -8 0 -13 4 -10 9 4 5 2 11 -4
13 -5 1 -11 15 -12 30 -2 21 -5 25 -16 16 -10 -9 -12 -8 -10 3 2 8 8 17 13 21
6 4 0 8 -13 8 -13 0 -20 4 -17 10 3 6 1 10 -6 10 -7 0 -9 3 -6 7 4 3 1 13 -6
21 -10 13 -9 14 2 7 10 -6 12 -4 7 4 -5 7 -15 10 -23 7 -8 -3 -11 -1 -8 5 8
13 -14 69 -27 69 -5 0 -6 6 -2 13 5 7 0 6 -11 -3 -14 -11 -17 -11 -11 -1 5 8
3 17 -5 22 -11 7 -10 9 4 9 9 0 17 4 17 10 0 5 -7 6 -17 3 -12 -5 -14 -3 -8 7
6 10 4 12 -7 7 -12 -4 -14 -1 -11 14 3 11 0 19 -6 19 -7 0 -9 -5 -5 -12 4 -7
3 -8 -4 -4 -6 4 -9 13 -5 21 3 9 0 21 -6 29 -6 7 -8 16 -4 20 4 4 0 4 -10 0
-12 -4 -17 -1 -17 10 0 9 -5 16 -11 16 -5 0 -7 5 -3 12 5 7 2 9 -9 5 -11 -4
-14 -2 -11 7 3 7 -1 20 -9 28 -8 8 -17 23 -19 34 -2 10 -9 18 -16 17 -6 -2 -9
4 -6 12 5 13 -5 19 -27 17 -3 -1 -5 10 -3 24 2 22 0 23 -14 12 -10 -8 -13 -9
-9 -1 4 7 -2 19 -15 29 -15 11 -17 14 -5 11 24 -9 21 -1 -13 31 -30 30 -40 49
-17 36 9 -6 9 -4 -1 8 -7 9 -22 15 -33 13 -16 -3 -17 -1 -9 15 8 15 6 17 -13
13 -18 -4 -19 -3 -7 6 13 9 12 11 -4 11 -12 0 -16 5 -13 15 4 8 1 17 -5 21 -7
5 -8 2 -3 -6 5 -9 4 -11 -4 -6 -9 6 -9 11 1 24 9 10 9 13 1 9 -6 -4 -17 -2
-23 5 -50 60 -55 68 -51 91 1 4 -9 2 -21 -4 -21 -11 -22 -11 -10 4 12 14 11
16 -8 12 -16 -3 -19 -1 -11 8 6 8 6 18 1 27 -6 8 -10 11 -10 7 0 -4 -9 1 -21
12 -12 11 -18 24 -15 29 7 12 -17 33 -42 35 -10 0 -19 7 -19 14 0 10 4 10 16
0 14 -11 14 -10 2 6 -7 9 -21 16 -30 15 -9 -2 -15 3 -14 10 2 6 -4 12 -12 12
-8 0 -14 6 -12 13 1 6 -4 11 -12 9 -12 -3 -12 -1 0 14 9 12 9 15 2 10 -8 -4
-13 -2 -13 4 0 6 -4 8 -10 5 -5 -3 -10 3 -10 15 0 12 -4 19 -9 15 -5 -3 -12 3
-16 14 -3 10 -15 21 -25 24 -14 4 -18 10 -13 23 5 13 3 15 -7 9 -10 -6 -12 -4
-7 9 5 14 3 15 -12 6 -16 -8 -19 -7 -16 8 3 23 -13 42 -37 42 -17 0 -18 3 -9
14 10 12 7 14 -15 11 -27 -3 -27 -2 -9 12 19 14 19 15 -4 8 -15 -4 -21 -3 -17
3 3 5 -3 12 -14 15 -14 4 -18 10 -14 22 5 11 2 16 -7 15 -30 -5 -39 1 -39 21
0 18 -2 19 -15 9 -10 -9 -15 -9 -15 -1 0 30 -38 71 -67 74 -12 0 -19 6 -16 14
3 7 -3 20 -13 30 -17 17 -17 17 -11 1 3 -10 3 -18 -2 -18 -5 0 -12 12 -15 26
-6 21 -9 24 -21 14 -12 -10 -15 -9 -15 10 0 18 -3 20 -14 11 -11 -9 -14 -8
-12 6 0 10 -4 18 -10 18 -15 0 -44 31 -37 39 4 3 1 6 -6 6 -7 0 -9 5 -5 13 5
7 1 7 -12 -3 -10 -8 -16 -11 -12 -6 4 5 1 15 -7 22 -17 17 -29 18 -19 2 4 -7
-9 3 -29 22 -20 19 -37 39 -37 43 0 4 14 -6 30 -23 17 -17 30 -27 30 -22 0 14
-54 57 -69 54 -7 -2 -10 1 -6 7 6 11 -6 15 -32 12 -6 -1 -18 6 -25 16 -7 10
-22 23 -33 30 -11 6 -19 16 -18 22 4 15 -10 14 -26 -1 -11 -10 -13 -10 -7 0 4
6 2 12 -4 12 -6 0 -8 5 -4 12 5 8 2 9 -9 5 -9 -3 -19 -1 -23 5 -4 7 -3 8 4 4
7 -4 12 -2 12 5 0 6 -8 9 -20 6 -17 -4 -18 -2 -9 14 5 11 6 18 2 17 -16 -4
-53 14 -53 25 0 7 -4 6 -10 -3 -6 -9 -10 -10 -10 -3 0 6 -9 15 -20 18 -11 3
-20 14 -21 23 0 14 -2 13 -8 -3 -7 -17 -8 -16 -15 9 -6 23 -9 26 -21 16 -15
-12 -21 -3 -16 24 1 5 -6 3 -15 -5 -10 -8 -15 -9 -12 -4 3 6 0 16 -8 23 -11
10 -14 10 -14 0 0 -9 -3 -9 -8 -2 -4 6 -15 13 -25 17 -10 4 -16 11 -12 16 3 5
0 13 -6 17 -8 4 -9 3 -5 -4 10 -17 -3 -15 -21 4 -9 8 -22 13 -29 10 -7 -3 -16
0 -20 6 -4 6 -3 8 4 4 6 -3 13 -2 16 3 3 5 -5 12 -19 15 -14 4 -25 11 -25 16
0 6 -12 10 -26 10 -16 0 -23 4 -18 12 4 6 3 8 -4 4 -6 -3 -17 1 -25 9 -9 8
-21 15 -27 15 -6 0 -8 5 -4 12 4 6 3 8 -4 4 -6 -3 -18 1 -26 10 -12 11 -16 12
-16 2 0 -7 -7 -2 -16 10 -8 12 -21 22 -27 22 -7 0 -6 -4 3 -10 8 -5 10 -10 4
-10 -6 0 -19 10 -28 23 -9 12 -14 16 -11 10 10 -21 -5 -15 -27 10 -11 12 -17
16 -13 10 10 -20 -6 -15 -26 9 -11 12 -19 16 -19 8 0 -8 -8 -4 -19 9 -14 16
-21 18 -24 9 -4 -11 -6 -10 -6 0 -1 7 -5 10 -11 7 -5 -3 -10 1 -10 10 0 9 -4
14 -9 10 -5 -3 -16 2 -24 10 -17 17 -31 20 -22 5 3 -6 -1 -7 -9 -4 -9 3 -16
13 -16 21 0 8 -4 12 -9 8 -5 -3 -17 2 -25 11 -11 10 -16 11 -16 3 0 -7 -8 -2
-19 9 -19 23 -37 30 -26 11 8 -13 -37 12 -47 26 -5 6 -11 5 -17 -3 -6 -11 -10
-9 -14 7 -3 12 -11 21 -19 21 -10 0 -9 -3 2 -10 8 -5 10 -10 4 -10 -6 0 -19
10 -28 23 -9 12 -14 16 -11 10 3 -7 1 -13 -4 -13 -6 0 -11 5 -11 10 0 6 -9 10
-20 10 -11 0 -20 5 -20 11 0 8 -6 7 -17 -2 -10 -7 -15 -10 -11 -5 4 5 1 15 -7
22 -15 16 -29 19 -21 5 4 -5 -5 -4 -18 2 -13 7 -22 16 -18 22 3 5 -2 4 -11 -4
-11 -9 -17 -10 -17 -2 0 6 -9 11 -20 11 -11 0 -20 5 -20 10 0 6 -5 10 -11 10
-5 0 -8 -4 -5 -9 4 -5 -5 -4 -19 2 -14 7 -25 17 -25 22 0 6 -5 3 -10 -5 -6
-10 -10 -11 -10 -2 0 6 -9 12 -20 12 -11 0 -20 6 -20 13 0 8 -4 7 -10 -3 -6
-10 -10 -11 -10 -2 0 6 -9 12 -20 12 -11 0 -20 6 -20 13 0 9 -3 8 -9 -2 -7
-10 -10 -10 -13 -1 -2 7 -16 13 -31 13 -16 0 -24 4 -20 10 4 6 0 8 -10 4 -9
-3 -18 0 -21 9 -5 12 -10 13 -27 3 -15 -8 -19 -8 -15 0 4 7 -1 11 -13 11 -12
0 -21 6 -21 13 0 8 -4 7 -10 -3 -6 -10 -10 -11 -10 -2 0 7 -13 12 -30 12 -17
0 -30 5 -30 13 0 8 -4 7 -10 -3 -6 -10 -10 -11 -10 -2 0 7 -13 12 -30 12 -17
0 -30 5 -30 13 0 8 -4 7 -10 -3 -6 -10 -10 -11 -10 -2 0 6 -10 12 -23 12 -13
0 -29 6 -36 13 -11 10 -13 10 -7 0 4 -7 2 -13 -3 -13 -6 0 -11 5 -11 10 0 6
-10 10 -23 10 -13 0 -29 6 -36 13 -11 10 -13 10 -7 0 4 -7 2 -13 -3 -13 -6 0
-11 5 -11 11 0 7 -15 10 -39 7 -22 -2 -39 -1 -39 2 1 18 -4 23 -12 10 -6 -10
-10 -11 -10 -2 0 7 -15 12 -41 12 -27 0 -38 4 -33 11 4 7 -1 7 -16 -1 -15 -8
-20 -8 -16 -1 5 7 -5 11 -28 11 -22 0 -36 5 -36 13 0 8 -4 7 -10 -3 -9 -13
-10 -13 -10 0 0 13 -1 13 -10 0 -6 -10 -10 -11 -10 -2 0 8 -22 12 -75 12 -53
0 -75 4 -75 13 0 8 -4 7 -10 -3 -6 -10 -10 -11 -10 -2 0 8 -21 12 -70 12 -49
0 -70 4 -70 13 0 8 -4 7 -10 -3 -6 -10 -10 -11 -10 -2 0 9 -31 12 -120 12 -89
0 -120 3 -120 13 0 8 -4 7 -10 -3 -6 -10 -10 -11 -10 -2 0 9 -73 12 -331 12
-261 0 -329 -3 -323 -12 5 -9 2 -9 -9 1 -11 9 -17 10 -17 2z m-2476 -799 c3
-5 -1 -9 -9 -9 -8 0 -12 4 -9 9 3 4 7 8 9 8 2 0 6 -4 9 -8z m6566 -622 c6 -11
9 -20 8 -20 -2 0 -11 9 -21 20 -9 11 -13 20 -7 20 5 0 14 -9 20 -20z m215
-190 c3 -6 -1 -7 -9 -4 -18 7 -21 14 -7 14 6 0 13 -4 16 -10z m260 -279 c3 -5
0 -13 -6 -17 -7 -4 -9 -3 -5 4 3 5 0 13 -6 15 -9 4 -10 6 -1 6 6 1 14 -3 18
-8z m-8475 -161 c0 -5 -5 -10 -11 -10 -5 0 -7 5 -4 10 3 6 8 10 11 10 2 0 4
-4 4 -10z m-280 -380 c0 -5 -5 -10 -11 -10 -5 0 -7 5 -4 10 3 6 8 10 11 10 2
0 4 -4 4 -10z m9235 -110 c3 -5 1 -10 -4 -10 -6 0 -11 5 -11 10 0 6 2 10 4 10
3 0 8 -4 11 -10z m-9401 -155 c-4 -8 -11 -12 -16 -9 -6 4 -5 10 3 15 19 12 19
11 13 -6z m9494 -10 c-3 -3 -9 2 -12 12 -6 14 -5 15 5 6 7 -7 10 -15 7 -18z
m569 -1291 c-3 -3 -12 -4 -19 -1 -8 3 -5 6 6 6 11 1 17 -2 13 -5z m153 -2418
c0 -3 -4 -8 -10 -11 -5 -3 -10 -1 -10 4 0 6 5 11 10 11 6 0 10 -2 10 -4z
m-10770 -672 c0 -8 -19 -13 -24 -6 -3 5 1 9 9 9 8 0 15 -2 15 -3z m10187
-1081 c0 -10 -4 -10 -16 -1 -9 7 -18 13 -20 15 -2 1 5 1 16 0 11 0 20 -7 20
-14z m-9747 -17 c10 -13 10 -17 3 -12 -15 8 -16 5 -7 -18 3 -9 10 -16 16 -16
5 0 6 6 2 13 -4 6 -3 8 1 4 12 -11 15 -37 4 -37 -15 0 -48 61 -42 77 3 8 6 13
7 11 1 -2 8 -12 16 -22z m53 -117 c3 -12 10 -18 15 -15 6 4 8 -3 5 -16 -4 -19
-3 -20 6 -8 9 13 11 13 11 -2 0 -9 -5 -18 -12 -20 -6 -2 4 -12 23 -21 19 -9
27 -17 18 -17 -16 0 -72 39 -56 40 4 0 -2 18 -13 40 -11 22 -16 40 -11 40 5 0
11 -9 14 -21z m9501 -224 c-14 -5 -25 -15 -24 -20 1 -5 -4 -11 -10 -13 -9 -3
-9 1 0 18 11 20 10 22 -4 17 -8 -3 -18 -1 -22 5 -4 6 -3 9 2 6 5 -3 19 -2 32
3 20 8 21 12 11 31 -8 18 -5 17 15 -6 l27 -30 -27 -11z m-129 -104 c3 -5 2
-12 -3 -15 -5 -3 -9 1 -9 9 0 17 3 19 12 6z m-9125 -53 c11 -12 18 -29 15 -36
-4 -10 0 -12 12 -8 10 4 14 4 10 0 -4 -4 0 -15 9 -25 9 -10 11 -19 5 -23 -13
-8 -51 42 -45 59 4 10 0 13 -15 10 -12 -2 -19 0 -16 5 3 5 1 11 -5 15 -6 4 -8
11 -5 16 9 13 12 12 35 -13z m8880 -354 c0 -2 -8 0 -19 5 -10 6 -22 7 -26 3
-5 -4 -5 -1 -1 6 5 9 12 9 27 2 10 -6 19 -13 19 -16z m-66 -93 c8 -11 8 -13
-1 -7 -8 4 -13 2 -13 -4 0 -7 -6 -5 -15 4 -17 17 -20 30 -5 21 6 -3 10 2 11
12 0 14 2 15 6 3 3 -8 11 -21 17 -29z m-62 -18 c-6 -3 -9 -10 -6 -15 4 -7 2
-8 -5 -4 -9 6 -9 11 0 22 6 8 15 12 18 8 3 -4 0 -9 -7 -11z m-8342 -33 c0 -5
-5 -10 -11 -10 -5 0 -7 5 -4 10 3 6 8 10 11 10 2 0 4 -4 4 -10z m44 -81 c-5
-9 10 -13 30 -10 5 1 3 -6 -5 -15 -13 -16 -12 -17 6 -11 19 7 19 6 2 -7 -21
-16 -9 -30 13 -15 19 11 33 12 26 0 -13 -21 -45 -18 -68 7 -13 14 -18 22 -11
18 20 -11 21 8 1 27 -10 10 -18 12 -18 5 0 -6 -3 -9 -6 -5 -10 10 6 26 21 21
8 -4 12 -10 9 -15z m8219 4 c-3 -7 -8 -13 -12 -13 -4 0 -8 6 -8 13 0 8 6 14
13 14 7 0 10 -6 7 -14z m3 -35 c4 -7 4 -10 -1 -6 -4 4 -14 3 -22 -4 -11 -8
-12 -7 -7 6 7 19 20 21 30 4z m-151 -77 c3 -5 2 -12 -3 -15 -5 -3 -9 1 -9 9 0
17 3 19 12 6z m-7942 -28 c-7 -2 -13 -9 -13 -14 0 -6 5 -7 12 -3 7 4 8 3 4 -5
-6 -9 -11 -9 -22 0 -12 10 -12 14 -2 20 7 5 18 8 23 8 6 0 4 -3 -2 -6z m7920
-18 c-3 -8 -10 -15 -15 -15 -7 0 -6 5 1 13 6 8 7 18 3 22 -4 5 -2 5 5 1 7 -4
10 -13 6 -21z m17 -29 c0 -11 -19 -15 -25 -6 -3 5 1 10 9 10 9 0 16 -2 16 -4z
m-75 -54 c9 -6 19 -32 12 -32 -1 0 -10 9 -20 20 -16 20 -12 27 8 12z m-7772
-22 c-4 -17 -8 -18 -20 -8 -13 10 -13 13 4 19 10 4 19 8 20 8 0 1 -1 -8 -4
-19z m37 -51 c0 -5 -4 -9 -8 -9 -5 0 -9 7 -9 15 0 8 4 12 9 9 4 -3 8 -9 8 -15z
m155 -69 c3 -5 1 -10 -4 -10 -6 0 -11 5 -11 10 0 6 2 10 4 10 3 0 8 -4 11 -10z
m39 -18 c2 -4 -5 -9 -17 -9 -17 -2 -19 0 -7 7 18 12 18 12 24 2z m7321 -22
c-3 -5 -12 -10 -18 -10 -7 0 -6 4 3 10 19 12 23 12 15 0z m-7248 -65 c4 -4 3
-5 -4 -2 -6 4 -13 2 -15 -5 -3 -8 -6 -6 -10 4 -7 17 15 19 29 3z m-42 -16 c-4
-5 -1 -9 5 -9 6 0 8 -5 5 -11 -9 -13 -15 -7 -20 20 -2 12 0 19 6 16 5 -4 7
-11 4 -16z m112 -71 c-3 -8 -6 -5 -6 6 -1 11 2 17 5 13 3 -3 4 -12 1 -19z
m6918 -68 c-3 -5 -12 -10 -18 -10 -7 0 -6 4 3 10 19 12 23 12 15 0z m-6782
-25 c-3 -9 -8 -14 -10 -11 -3 3 -2 9 2 15 9 16 15 13 8 -4z m-39 -21 c5 -14 4
-15 -9 -4 -17 14 -19 20 -6 20 5 0 12 -7 15 -16z m59 -19 c4 -8 15 -12 28 -10
17 4 20 2 11 -7 -16 -16 -15 -31 1 -21 15 9 53 16 45 7 -3 -3 -12 -6 -20 -8
-7 -1 -18 -5 -24 -9 -7 -4 -23 3 -38 14 -14 11 -31 17 -38 14 -7 -4 -5 0 4 8
10 8 15 17 11 20 -3 4 -2 7 4 7 6 0 13 -7 16 -15z m6610 -107 c-15 -15 -32
-27 -37 -25 -6 2 -19 -6 -28 -17 -17 -20 -17 -20 -2 11 8 18 20 35 25 38 5 4
7 11 3 16 -3 5 -10 6 -16 3 -7 -5 -8 -2 -3 5 5 9 10 10 18 2 15 -15 30 -14 21
2 -6 10 -4 10 7 0 20 -19 33 -16 18 5 -13 15 -12 16 4 3 17 -13 16 -16 -10
-43z m-6440 7 c-3 -9 -8 -14 -10 -11 -3 3 -2 9 2 15 9 16 15 13 8 -4z m6357 7
c0 -5 -7 -9 -15 -9 -8 0 -12 4 -9 9 3 4 9 8 15 8 5 0 9 -4 9 -8z m-6262 -67
c-3 -3 -9 2 -12 12 -6 14 -5 15 5 6 7 -7 10 -15 7 -18z m6175 -8 c4 3 7 1 7
-5 0 -6 -8 -10 -18 -9 -10 0 -19 7 -19 14 0 9 4 10 12 3 7 -5 15 -7 18 -3z
m-6158 -17 c3 -6 -1 -7 -9 -4 -18 7 -21 14 -7 14 6 0 13 -4 16 -10z m85 -50
c0 -5 -5 -10 -11 -10 -5 0 -7 5 -4 10 3 6 8 10 11 10 2 0 4 -4 4 -10z m6024
-7 c3 -7 2 -12 -2 -12 -4 1 -9 0 -12 -1 -19 -7 -39 -7 -34 1 3 5 10 6 16 3 7
-5 9 -2 6 8 -4 8 0 15 8 15 7 0 15 -6 18 -14z m-84 -7 c0 -2 -7 -7 -16 -10 -8
-3 -12 -2 -9 4 6 10 25 14 25 6z m-5800 -60 c0 -3 -4 -8 -10 -11 -5 -3 -10 -1
-10 4 0 6 5 11 10 11 6 0 10 -2 10 -4z m5695 -25 c-8 -14 -25 -14 -25 0 0 5 5
7 10 4 6 -3 10 -1 10 6 0 7 3 10 6 6 3 -3 3 -10 -1 -16z m-5615 -37 c0 -8 -5
-14 -12 -14 -6 0 -8 3 -5 7 4 3 2 12 -5 20 -8 11 -7 12 6 7 9 -3 16 -12 16
-20z m5535 16 c3 -5 1 -10 -4 -10 -6 0 -11 5 -11 10 0 6 2 10 4 10 3 0 8 -4
11 -10z m40 0 c-3 -5 -12 -10 -18 -10 -7 0 -6 4 3 10 19 12 23 12 15 0z m-58
-60 c0 -21 -5 -29 -13 -26 -7 3 -18 -2 -24 -9 -7 -8 -16 -13 -20 -10 -5 3 -11
1 -15 -5 -8 -13 -25 -3 -25 13 0 7 4 6 10 -3 7 -12 10 -12 10 -1 0 7 6 11 15
8 8 -4 17 -2 20 3 4 6 -2 10 -12 11 -16 0 -16 1 2 8 11 5 24 6 29 3 5 -3 6 2
3 12 -4 10 -3 15 3 11 6 -3 10 -1 10 4 0 6 2 11 3 11 2 0 4 -14 4 -30z m-5433
-19 c-2 -3 -12 3 -22 13 -16 17 -16 18 5 5 12 -7 20 -15 17 -18z m5324 -26 c3
-3 -4 -4 -16 -2 -12 2 -24 6 -28 10 -4 3 4 4 16 2 12 -2 25 -7 28 -10z m-68
-9 c0 -2 -7 -7 -16 -10 -8 -3 -12 -2 -9 4 6 10 25 14 25 6z m-5161 -13 c-3
-20 2 -26 11 -13 5 8 10 10 10 4 0 -6 -8 -18 -17 -25 -10 -8 -14 -9 -10 -2 4
6 3 14 -3 18 -5 3 -10 -1 -10 -10 0 -9 -4 -13 -10 -10 -6 4 -5 13 3 25 12 20
28 27 26 13z m150 -57 c9 -11 9 -16 -1 -22 -7 -4 -10 -4 -6 1 4 4 3 14 -3 22
-6 7 -9 13 -6 13 2 0 10 -6 16 -14z m4871 -10 c0 -3 -4 -8 -10 -11 -5 -3 -10
-1 -10 4 0 6 5 11 10 11 6 0 10 -2 10 -4z m37 -2 c-3 -3 -12 -4 -19 -1 -8 3
-5 6 6 6 11 1 17 -2 13 -5z m-4820 -19 c0 -8 -4 -15 -9 -15 -10 0 -11 14 -1
23 9 10 10 9 10 -8z m4699 -20 c1 -8 -2 -15 -6 -15 -5 0 -8 9 -7 20 1 21 10
18 13 -5z m-4636 -35 c0 -5 -5 -10 -11 -10 -5 0 -7 5 -4 10 3 6 8 10 11 10 2
0 4 -4 4 -10z m18 -31 c-2 -6 -8 -11 -13 -11 -6 0 -17 -5 -25 -11 -8 -6 -6 -2
4 11 20 23 40 30 34 11z m37 1 c-3 -5 -11 -10 -16 -10 -6 0 -7 5 -4 10 3 6 11
10 16 10 6 0 7 -4 4 -10z m79 2 c3 -5 -1 -9 -9 -9 -8 0 -12 4 -9 9 3 4 7 8 9
8 2 0 6 -4 9 -8z m4226 -26 c0 -2 -8 -10 -17 -17 -16 -13 -17 -12 -4 4 13 16
21 21 21 13z m37 -11 c0 -8 -4 -15 -9 -15 -10 0 -11 14 -1 23 9 10 10 9 10 -8z
m58 -5 c-3 -5 1 -10 10 -10 9 0 13 5 10 10 -3 6 -1 10 4 10 18 0 12 -19 -9
-30 -11 -6 -20 -9 -20 -6 0 2 -3 11 -6 20 -3 9 -1 16 6 16 6 0 8 -4 5 -10z
m-4260 -10 c3 -5 1 -10 -4 -10 -6 0 -11 5 -11 10 0 6 2 10 4 10 3 0 8 -4 11
-10z m4104 -43 c0 -8 -2 -8 -6 1 -4 10 -8 10 -21 0 -15 -12 -16 -11 -3 4 14
19 32 15 30 -5z m-3922 -4 c-4 -3 1 -16 10 -27 15 -17 15 -18 1 -8 -13 10 -17
10 -21 0 -3 -7 -4 -2 -2 12 4 32 4 30 12 30 3 0 3 -3 0 -7z m-62 -13 c3 -6 -1
-7 -9 -4 -18 7 -21 14 -7 14 6 0 13 -4 16 -10z m143 -35 c-3 -3 -9 2 -12 12
-6 14 -5 15 5 6 7 -7 10 -15 7 -18z m83 -12 c13 -16 12 -17 -3 -4 -10 7 -18
15 -18 17 0 8 8 3 21 -13z m3546 11 c-3 -3 -12 -4 -19 -1 -8 3 -5 6 6 6 11 1
17 -2 13 -5z m-77 -38 c0 -2 -7 -7 -16 -10 -8 -3 -12 -2 -9 4 6 10 25 14 25 6z
m-3481 -9 c-2 -1 -11 -8 -21 -15 -12 -10 -18 -10 -24 -1 -4 7 -3 9 4 5 6 -3
13 -2 17 4 3 5 11 10 17 10 6 0 9 -1 7 -3z m3403 -29 c-8 -8 -9 -4 -5 13 4 13
8 18 11 10 2 -7 -1 -18 -6 -23z m-53 -4 c-7 -8 -6 -14 1 -17 6 -3 6 -5 -1 -3
-17 3 -20 33 -3 33 10 0 11 -4 3 -13z m95 -25 c-6 -10 -35 -4 -33 7 5 29 12
34 24 17 7 -10 11 -21 9 -24z m-3262 -1 c-9 -9 -15 -9 -24 1 -11 10 -9 11 6 5
16 -6 18 -4 12 12 -6 15 -5 17 5 7 10 -10 10 -16 1 -25z m79 -1 c-10 -9 -11
-8 -5 6 3 10 9 15 12 12 3 -3 0 -11 -7 -18z m3052 8 c-3 -9 -8 -14 -10 -11 -3
3 -2 9 2 15 9 16 15 13 8 -4z m28 -19 c14 8 11 -2 -4 -14 -10 -8 -13 -6 -14
11 0 12 1 16 4 9 3 -6 9 -10 14 -6z m-3053 -8 c-2 -8 5 -12 17 -11 11 1 14 0
7 -3 -6 -3 -10 -9 -7 -14 3 -4 -2 -10 -10 -13 -9 -4 -12 -1 -9 7 3 8 0 17 -5
21 -6 3 -9 11 -6 16 9 13 15 11 13 -3z m62 2 c0 -5 -2 -10 -4 -10 -3 0 -8 5
-11 10 -3 6 -1 10 4 10 6 0 11 -4 11 -10z m55 -19 c3 -5 0 -13 -6 -17 -8 -5
-9 -3 -4 6 6 10 1 12 -18 8 -15 -3 -24 -1 -21 3 7 12 41 11 49 0z m2702 -6 c0
-8 -4 -15 -9 -15 -10 0 -11 14 -1 23 9 10 10 9 10 -8z m122 8 c12 10 13 9 7
-2 -7 -10 -3 -11 15 -6 21 7 22 6 10 -9 -9 -11 -17 -13 -26 -6 -6 5 -14 8 -17
5 -3 -3 -11 3 -19 12 -11 15 -11 16 1 6 11 -10 17 -10 29 0z m-2865 -27 c7 3
16 -1 19 -9 3 -9 -2 -13 -16 -13 -32 2 -47 14 -40 32 5 15 7 15 15 1 5 -9 15
-14 22 -11z m91 14 c3 -6 -1 -7 -9 -4 -18 7 -21 14 -7 14 6 0 13 -4 16 -10z
m2620 0 c3 -6 -1 -7 -9 -4 -18 7 -21 14 -7 14 6 0 13 -4 16 -10z m-2489 -26
c1 -9 0 -13 -4 -10 -3 4 -7 14 -8 22 -1 9 0 13 4 10 3 -4 7 -14 8 -22z m2279
-4 c-2 -11 0 -22 6 -25 5 -4 9 -12 9 -18 0 -7 -6 -3 -13 8 -12 22 -15 36 -10
48 8 14 12 7 8 -13z m256 4 c-17 -13 -25 -14 -34 -5 -9 9 -8 11 4 6 10 -4 20
-2 24 4 3 6 11 11 18 11 6 0 1 -7 -12 -16z m59 6 c12 -7 10 -9 -8 -7 -12 0
-22 5 -22 9 0 11 12 10 30 -2z m-2655 -10 c3 -6 -1 -7 -9 -4 -18 7 -21 14 -7
14 6 0 13 -4 16 -10z m2423 -25 c-3 -3 -9 2 -12 12 -6 14 -5 15 5 6 7 -7 10
-15 7 -18z m-2380 3 c-2 -6 5 -14 16 -16 10 -2 16 0 13 5 -3 5 3 9 13 10 18 2
18 1 2 -16 -13 -14 -21 -16 -37 -7 -11 5 -26 9 -32 8 -7 -2 -13 2 -13 8 0 6 5
8 10 5 6 -3 10 -1 10 4 0 6 5 11 10 11 6 0 9 -5 8 -12z m137 3 c3 -6 -3 -14
-13 -20 -14 -7 -19 -6 -19 4 0 7 7 11 15 7 10 -3 13 -1 8 6 -4 7 -5 12 -2 12
3 0 7 -4 11 -9z m2288 -11 c3 -11 1 -18 -4 -14 -5 3 -9 12 -9 20 0 20 7 17 13
-6z m-2473 6 c0 -2 -9 -6 -20 -9 -11 -3 -18 -1 -14 4 5 9 34 13 34 5z m345
-14 c-3 -3 -11 0 -18 7 -9 10 -8 11 6 5 10 -3 15 -9 12 -12z m-232 -16 c4 -10
1 -13 -8 -9 -8 3 -12 9 -9 14 7 12 11 11 17 -5z m2007 -1 c0 -2 -9 -3 -19 -2
-11 0 -18 5 -15 9 4 6 34 0 34 -7z m150 11 c0 -3 -4 -8 -10 -11 -5 -3 -10 -1
-10 4 0 6 5 11 10 11 6 0 10 -2 10 -4z m37 -2 c-3 -3 -12 -4 -19 -1 -8 3 -5 6
6 6 11 1 17 -2 13 -5z m-1941 -46 c5 4 2 -1 -5 -10 -14 -18 -36 -15 -25 3 3 6
0 18 -8 28 -7 9 -3 7 8 -5 12 -13 26 -20 30 -16z m20 23 c0 -11 -5 -17 -13
-14 -10 4 -11 9 -2 19 15 18 15 18 15 -5z m1771 13 c-3 -3 -12 -4 -19 -1 -8 3
-5 6 6 6 11 1 17 -2 13 -5z m101 -21 c6 -2 12 1 12 6 0 5 11 9 25 9 14 0 25
-4 25 -8 0 -5 -8 -7 -17 -5 -10 1 -24 -2 -31 -8 -20 -16 -54 -16 -82 0 -15 8
-17 12 -6 8 11 -3 24 0 29 7 6 9 7 8 3 -4 -3 -10 -1 -18 4 -18 6 0 10 10 11
23 0 16 2 18 7 7 4 -8 13 -16 20 -17z m-2108 13 c0 -3 -4 -8 -10 -11 -5 -3
-10 -1 -10 4 0 6 5 11 10 11 6 0 10 -2 10 -4z m360 -6 c0 -5 -5 -10 -11 -10
-5 0 -7 5 -4 10 3 6 8 10 11 10 2 0 4 -4 4 -10z m45 0 c3 -6 -1 -7 -9 -4 -18
7 -21 14 -7 14 6 0 13 -4 16 -10z m46 -7 c13 -17 13 -17 -6 -3 -11 8 -22 16
-24 17 -2 2 0 3 6 3 6 0 17 -8 24 -17z m1300 0 c12 -16 12 -17 -2 -6 -9 7 -19
10 -22 6 -4 -3 -7 -1 -7 5 0 17 16 15 31 -5z m103 -9 c3 -8 2 -12 -4 -9 -6 3
-10 10 -10 16 0 14 7 11 14 -7z m-1210 -2 c3 -5 -1 -9 -9 -9 -8 0 -12 4 -9 9
3 4 7 8 9 8 2 0 6 -4 9 -8z m314 -12 c-7 -10 -14 -17 -17 -15 -4 4 18 35 25
35 2 0 -1 -9 -8 -20z m-202 -5 c-1 -8 -5 -17 -8 -21 -5 -4 -4 16 1 34 3 9 9
-1 7 -13z m365 -2 c13 -16 12 -17 -3 -4 -10 7 -18 15 -18 17 0 8 8 3 21 -13z
m139 13 c0 -2 -8 -10 -17 -17 -16 -13 -17 -12 -4 4 13 16 21 21 21 13z m440
-3 c0 -1 -8 -7 -18 -12 -13 -7 -19 -6 -19 2 0 7 9 13 19 13 10 0 18 -1 18 -3z
m-1133 -57 c-4 -11 -47 -18 -47 -8 0 3 8 10 17 17 12 9 14 17 8 27 -6 8 -2 5
8 -6 10 -10 16 -24 14 -30z m33 43 c0 -5 -4 -7 -10 -4 -5 3 -10 1 -10 -6 0 -7
-3 -10 -6 -6 -8 7 4 27 17 27 5 0 9 -5 9 -11z m117 -6 c0 -7 -4 -13 -8 -13 -4
0 -9 6 -12 13 -3 8 0 14 7 14 7 0 13 -6 13 -14z m190 6 c-9 -6 -14 -16 -11
-22 4 -7 3 -8 -1 -4 -17 15 -12 33 9 34 19 2 19 1 3 -8z m115 -7 c-7 -2 -9 -9
-5 -15 3 -7 2 -8 -2 -4 -16 14 -14 36 3 29 10 -4 12 -7 4 -10z m42 10 c3 -5
-1 -9 -9 -9 -8 0 -12 4 -9 9 3 4 7 8 9 8 2 0 6 -4 9 -8z m31 -2 c3 -5 1 -10
-4 -10 -6 0 -11 5 -11 10 0 6 2 10 4 10 3 0 8 -4 11 -10z m105 0 c0 -5 -6 -9
-12 -7 -7 1 -12 -4 -10 -11 1 -8 -2 -11 -8 -7 -8 5 -7 11 1 21 13 16 29 18 29
4z m160 6 c0 -3 -4 -8 -10 -11 -5 -3 -10 -1 -10 4 0 6 5 11 10 11 6 0 10 -2
10 -4z m-509 -29 c-10 -9 -11 -8 -5 6 3 10 9 15 12 12 3 -3 0 -11 -7 -18z
m444 2 c-4 -5 -12 -9 -18 -8 -9 0 -8 2 1 6 6 2 9 10 6 15 -4 7 -2 8 5 4 6 -4
9 -12 6 -17z m-760 1 c3 -5 2 -10 -4 -10 -5 0 -13 5 -16 10 -3 6 -2 10 4 10 5
0 13 -4 16 -10z m82 -10 c-4 -28 -15 -35 -12 -8 3 27 3 28 10 28 3 0 4 -9 2
-20z m1032 -17 c11 -10 11 -11 -3 -9 -18 2 -36 23 -36 40 0 6 6 3 13 -5 6 -8
18 -19 26 -26z m-519 7 c0 -5 -2 -10 -4 -10 -3 0 -8 5 -11 10 -3 6 -1 10 4 10
6 0 11 -4 11 -10z m27 -12 c2 -18 0 -20 -7 -8 -12 18 -13 30 -2 30 4 0 9 -10
9 -22z"/>
<path d="M1030 2556 c0 -2 8 -10 18 -17 15 -13 16 -12 3 4 -13 16 -21 21 -21
13z"/>
<path d="M1080 2486 c0 -2 8 -10 18 -17 15 -13 16 -12 3 4 -13 16 -21 21 -21
13z"/>
<path d="M2250 1257 c0 -2 6 -10 14 -16 11 -9 16 -9 22 1 4 7 4 10 -1 6 -4 -4
-14 -3 -22 3 -7 6 -13 9 -13 6z"/>
<path d="M8844 1166 c-10 -8 -17 -17 -14 -19 3 -3 14 1 24 9 11 7 17 16 15 19
-3 3 -14 -2 -25 -9z"/>
<path d="M7276 372 c-3 -5 1 -9 9 -9 8 0 12 4 9 9 -3 4 -7 8 -9 8 -2 0 -6 -4
-9 -8z"/>
<path d="M2400 10219 c0 -5 5 -7 10 -4 6 3 10 8 10 11 0 2 -4 4 -10 4 -5 0
-10 -5 -10 -11z"/>
<path d="M9130 9995 c0 -5 5 -17 10 -25 5 -8 10 -10 10 -5 0 6 -5 17 -10 25
-5 8 -10 11 -10 5z"/>
<path d="M1889 9809 l-24 -20 28 17 c15 9 27 18 27 20 0 8 -8 4 -31 -17z"/>
<path d="M9396 9748 c3 -5 10 -6 15 -3 13 9 11 12 -6 12 -8 0 -12 -4 -9 -9z"/>
<path d="M1470 9369 c0 -5 5 -7 10 -4 6 3 10 8 10 11 0 2 -4 4 -10 4 -5 0 -10
-5 -10 -11z"/>
<path d="M1070 8890 c-13 -8 -12 -10 3 -10 9 0 17 5 17 10 0 12 -1 12 -20 0z"/>
<path d="M720 8309 c0 -5 5 -7 10 -4 6 3 10 8 10 11 0 2 -4 4 -10 4 -5 0 -10
-5 -10 -11z"/>
<path d="M563 7995 c0 -8 4 -12 9 -9 5 3 6 10 3 15 -9 13 -12 11 -12 -6z"/>
<path d="M70 5946 c0 -2 8 -10 18 -17 15 -13 16 -12 3 4 -13 16 -21 21 -21 13z"/>
<path d="M73 5795 c0 -8 4 -12 9 -9 5 3 6 10 3 15 -9 13 -12 11 -12 -6z"/>
<path d="M11133 5285 c0 -8 4 -12 9 -9 5 3 6 10 3 15 -9 13 -12 11 -12 -6z"/>
<path d="M80 5203 c0 -7 5 -15 10 -18 6 -4 8 -11 5 -16 -4 -5 -1 -9 4 -9 15 0
13 11 -4 34 -8 11 -15 15 -15 9z"/>
<path d="M11126 5117 c3 -10 9 -15 12 -12 3 3 0 11 -7 18 -10 9 -11 8 -5 -6z"/>
<path d="M113 4887 c0 -8 6 -14 14 -14 9 0 10 4 2 14 -6 7 -12 13 -14 13 -1 0
-2 -6 -2 -13z"/>
<path d="M11086 4871 c-3 -4 4 -7 14 -6 27 2 33 10 10 12 -11 1 -22 -2 -24 -6z"/>
<path d="M135 4727 c1 -11 7 -22 14 -23 7 -2 7 0 1 3 -8 3 -8 9 0 18 8 9 7 14
-3 18 -9 3 -13 -2 -12 -16z"/>
<path d="M11060 4616 c0 -2 8 -10 18 -17 15 -13 16 -12 3 4 -13 16 -21 21 -21
13z"/>
<path d="M184 4592 c3 -5 0 -13 -6 -15 -9 -4 -10 -6 -1 -6 17 -1 25 16 12 25
-7 4 -9 3 -5 -4z"/>
<path d="M11035 4528 c1 -10 4 -20 8 -23 4 -3 5 -2 2 2 -3 3 2 14 10 23 13 14
12 16 -4 16 -10 0 -17 -7 -16 -18z"/>
<path d="M175 4520 c-3 -6 1 -7 9 -4 18 7 21 14 7 14 -6 0 -13 -4 -16 -10z"/>
<path d="M180 4492 c0 -4 9 -8 19 -8 11 0 17 4 15 8 -3 4 -12 8 -20 8 -8 0
-14 -4 -14 -8z"/>
<path d="M11037 4483 c-10 -9 -9 -23 1 -23 5 0 9 7 9 15 0 17 -1 18 -10 8z"/>
<path d="M11012 4383 c-6 -2 -10 -9 -6 -14 8 -14 21 -11 21 6 0 8 -1 15 -1 14
-1 0 -7 -3 -14 -6z"/>
<path d="M225 4357 c8 -13 12 -27 8 -30 -3 -4 -1 -7 5 -7 15 0 15 3 0 35 -6
14 -15 25 -20 25 -5 0 -2 -10 7 -23z"/>
<path d="M196 4352 c-3 -5 1 -9 9 -9 8 0 12 4 9 9 -3 4 -7 8 -9 8 -2 0 -6 -4
-9 -8z"/>
<path d="M10990 4269 c0 -5 5 -7 10 -4 6 3 10 8 10 11 0 2 -4 4 -10 4 -5 0
-10 -5 -10 -11z"/>
<path d="M250 4261 c-8 -6 -17 -8 -21 -5 -4 2 -10 0 -14 -5 -3 -6 5 -8 19 -5
21 3 24 1 21 -16 -2 -11 0 -18 6 -15 5 4 9 1 9 -4 0 -6 5 -11 12 -11 7 0 5 6
-4 18 -9 9 -14 25 -13 35 4 20 4 19 -15 8z"/>
<path d="M236 4188 c3 -5 10 -6 15 -3 13 9 11 12 -6 12 -8 0 -12 -4 -9 -9z"/>
<path d="M10955 4190 c-3 -6 1 -7 9 -4 18 7 21 14 7 14 -6 0 -13 -4 -16 -10z"/>
<path d="M10936 4142 c-2 -4 -1 -14 4 -22 7 -11 9 -9 7 8 -1 24 -3 26 -11 14z"/>
<path d="M294 4099 c-3 -6 0 -15 7 -20 12 -7 12 -9 0 -9 -8 0 -12 -3 -8 -6 12
-12 28 7 18 20 -6 7 -8 16 -4 19 3 4 4 7 0 7 -3 0 -9 -5 -13 -11z"/>
<path d="M276 4017 c3 -10 9 -15 12 -12 3 3 0 11 -7 18 -10 9 -11 8 -5 -6z"/>
<path d="M10867 3809 c7 -7 15 -10 18 -7 3 3 -2 9 -12 12 -14 6 -15 5 -6 -5z"/>
<path d="M10840 3750 c-9 -6 -10 -10 -3 -10 6 0 15 5 18 10 8 12 4 12 -15 0z"/>
<path d="M417 3723 c-2 -5 -1 -17 3 -27 6 -19 7 -19 12 2 6 21 -6 40 -15 25z"/>
<path d="M10787 3636 c-4 -10 -1 -13 8 -9 8 3 12 9 9 14 -7 12 -11 11 -17 -5z"/>
<path d="M470 3589 c0 -5 5 -7 10 -4 6 3 10 8 10 11 0 2 -4 4 -10 4 -5 0 -10
-5 -10 -11z"/>
<path d="M436 3568 c3 -5 10 -6 15 -3 13 9 11 12 -6 12 -8 0 -12 -4 -9 -9z"/>
<path d="M477 3509 c7 -7 15 -10 18 -7 3 3 -2 9 -12 12 -14 6 -15 5 -6 -5z"/>
<path d="M514 3476 c6 -34 12 -41 19 -24 2 8 -2 23 -10 33 -13 19 -14 18 -9
-9z"/>
<path d="M10733 3455 c0 -8 4 -12 9 -9 5 3 6 10 3 15 -9 13 -12 11 -12 -6z"/>
<path d="M10685 3450 c-3 -5 -1 -10 4 -10 6 0 11 5 11 10 0 6 -2 10 -4 10 -3
0 -8 -4 -11 -10z"/>
<path d="M493 3435 c0 -8 4 -12 9 -9 5 3 6 10 3 15 -9 13 -12 11 -12 -6z"/>
<path d="M10710 3430 c0 -5 5 -10 11 -10 5 0 7 5 4 10 -3 6 -8 10 -11 10 -2 0
-4 -4 -4 -10z"/>
<path d="M532 3410 c0 -14 2 -19 5 -12 2 6 2 18 0 25 -3 6 -5 1 -5 -13z"/>
<path d="M10680 3406 c0 -20 17 -29 26 -15 5 8 3 9 -6 4 -10 -6 -12 -4 -7 8 3
10 2 17 -3 17 -6 0 -10 -6 -10 -14z"/>
<path d="M558 3353 c7 -3 16 -2 19 1 4 3 -2 6 -13 5 -11 0 -14 -3 -6 -6z"/>
<path d="M10670 3346 c7 -7 13 -7 20 0 6 6 3 10 -10 10 -13 0 -16 -4 -10 -10z"/>
<path d="M570 3333 c0 -14 14 -29 34 -36 17 -7 18 -6 4 15 -15 23 -38 36 -38
21z"/>
<path d="M573 3265 c0 -8 4 -12 9 -9 5 3 6 10 3 15 -9 13 -12 11 -12 -6z"/>
<path d="M10604 3259 c-9 -10 -13 -19 -8 -19 5 0 2 -6 -6 -13 -18 -14 -24 -37
-10 -37 6 0 10 7 10 16 0 9 5 12 12 8 6 -4 8 -3 4 4 -3 6 2 15 11 21 11 6 13
11 5 11 -7 0 -11 4 -7 10 3 5 12 7 20 3 8 -3 15 -3 15 0 0 15 -31 13 -46 -4z"/>
<path d="M634 3201 c2 -16 10 -25 23 -26 14 -1 19 3 16 12 -3 7 -9 11 -13 8
-5 -3 -13 3 -19 12 -9 16 -10 15 -7 -6z"/>
<path d="M10519 3104 c-10 -13 -10 -15 -1 -10 7 4 19 3 27 -4 10 -8 15 -8 21
1 4 7 3 9 -4 5 -6 -3 -15 1 -20 9 -8 15 -10 14 -23 -1z"/>
<path d="M676 3052 c-3 -5 1 -9 9 -9 8 0 12 4 9 9 -3 4 -7 8 -9 8 -2 0 -6 -4
-9 -8z"/>
<path d="M10473 3034 c3 -4 2 -15 -4 -26 -9 -18 -8 -18 10 -9 20 11 19 41 -2
41 -6 0 -7 -3 -4 -6z"/>
<path d="M10495 2989 c-4 -6 -5 -12 -2 -15 2 -3 7 2 10 11 7 17 1 20 -8 4z"/>
<path d="M10393 2888 c-23 -30 -27 -43 -7 -26 16 14 23 15 34 5 10 -9 11 -9 6
1 -5 7 1 16 16 21 16 7 18 10 6 10 -9 1 -20 -4 -24 -10 -5 -8 -8 -8 -14 0 -5
9 -9 9 -17 -1z"/>
<path d="M10366 2804 c-9 -24 -7 -31 5 -11 6 9 15 14 21 11 7 -4 8 -2 4 4 -10
17 -23 15 -30 -4z"/>
<path d="M875 2710 c-3 -6 1 -7 9 -4 18 7 21 14 7 14 -6 0 -13 -4 -16 -10z"/>
<path d="M10186 2468 c3 -4 9 -8 15 -8 5 0 9 4 9 8 0 5 -7 9 -15 9 -8 0 -12
-4 -9 -9z"/>
<path d="M1153 2379 c-1 -10 4 -19 10 -19 7 0 6 -4 -3 -10 -9 -6 -10 -10 -3
-10 16 0 26 17 13 25 -6 4 -8 10 -5 15 3 5 2 11 -3 14 -4 2 -9 -4 -9 -15z"/>
<path d="M10100 2370 c-9 -6 -10 -10 -3 -10 6 0 15 5 18 10 8 12 4 12 -15 0z"/>
<path d="M1183 2303 c-7 -2 -13 -8 -13 -12 0 -12 40 -8 41 4 1 11 -11 15 -28
8z"/>
<path d="M10004 2288 c-10 -13 -15 -20 -10 -16 5 4 16 2 24 -5 13 -10 14 -9 7
2 -6 11 -4 13 9 8 14 -6 15 -3 6 13 -13 25 -13 25 -36 -2z"/>
<path d="M9990 2250 c0 -5 5 -10 10 -10 6 0 10 5 10 10 0 6 -4 10 -10 10 -5 0
-10 -4 -10 -10z"/>
<path d="M1215 2219 c-4 -6 -5 -12 -2 -15 2 -3 7 2 10 11 7 17 1 20 -8 4z"/>
<path d="M1235 2181 c-3 -5 -2 -12 3 -15 5 -3 9 1 9 9 0 17 -3 19 -12 6z"/>
<path d="M9973 2175 c0 -8 4 -12 9 -9 5 3 6 10 3 15 -9 13 -12 11 -12 -6z"/>
<path d="M9910 2119 c0 -5 -5 -7 -12 -3 -7 4 -8 3 -4 -5 6 -9 11 -9 22 0 17
14 18 19 4 19 -5 0 -10 -5 -10 -11z"/>
<path d="M1404 2025 c-19 -15 -19 -15 0 -8 12 4 17 3 13 -4 -4 -5 4 -15 17
-21 18 -8 23 -7 23 4 0 8 -8 21 -17 29 -15 13 -19 13 -36 0z m36 -10 c7 -9 8
-15 2 -15 -5 0 -12 7 -16 15 -3 8 -4 15 -2 15 2 0 9 -7 16 -15z"/>
<path d="M9750 1910 c0 -5 5 -10 11 -10 5 0 7 5 4 10 -3 6 -8 10 -11 10 -2 0
-4 -4 -4 -10z"/>
<path d="M1486 1892 c-3 -5 1 -9 9 -9 8 0 15 4 15 9 0 4 -4 8 -9 8 -6 0 -12
-4 -15 -8z"/>
<path d="M9710 1896 c0 -2 7 -7 16 -10 8 -3 12 -2 9 4 -6 10 -25 14 -25 6z"/>
<path d="M1540 1870 c-8 -5 -10 -10 -5 -10 6 0 17 5 25 10 8 5 11 10 5 10 -5
0 -17 -5 -25 -10z"/>
<path d="M9645 1861 c-3 -6 -10 -9 -15 -6 -5 3 -7 -4 -5 -15 3 -15 -1 -20 -12
-18 -24 4 -27 -19 -4 -25 11 -3 19 -1 18 3 -1 5 7 16 18 24 l20 16 -20 -6
c-20 -6 -20 -5 -1 10 11 9 17 18 14 22 -3 3 -9 0 -13 -5z"/>
<path d="M9680 1850 c-9 -6 -10 -10 -3 -10 6 0 15 5 18 10 8 12 4 12 -15 0z"/>
<path d="M1635 1775 c-19 -16 -19 -16 3 -5 27 13 31 -3 5 -20 -17 -11 -17 -11
0 -6 11 3 17 0 17 -9 0 -18 14 -19 28 -2 7 8 7 18 2 27 -6 8 -10 11 -10 6 0
-6 -6 -2 -13 7 -11 16 -14 16 -32 2z m55 -30 c0 -12 -19 -12 -23 0 -4 9 -1 12
9 8 7 -3 14 -7 14 -8z"/>
<path d="M9465 1687 c-14 -17 -13 -50 3 -53 7 -1 8 0 2 3 -16 8 -12 23 8 24 9
0 12 3 5 5 -7 3 -9 12 -6 20 6 17 2 18 -12 1z"/>
<path d="M1807 1624 c-3 -3 -3 -13 0 -22 5 -11 3 -13 -8 -7 -8 5 -11 4 -6 0
13 -14 35 -14 41 0 5 15 -17 39 -27 29z"/>
<path d="M9353 1583 c1 -10 -2 -19 -6 -20 -19 -4 -45 -46 -40 -61 6 -15 4 -15
-9 -4 -11 9 -18 10 -23 2 -4 -6 -3 -10 2 -9 4 1 10 0 13 -1 3 -1 13 -3 22 -5
14 -3 16 0 8 15 -11 20 13 50 25 30 8 -13 25 -13 25 1 0 5 -4 7 -10 4 -5 -3
-10 -2 -10 3 0 17 13 21 34 11 20 -9 20 -9 3 5 -10 8 -18 17 -18 20 2 19 0 26
-9 26 -5 0 -9 -8 -7 -17z"/>
<path d="M1930 1500 c-12 -7 -10 -9 7 -7 12 0 19 5 17 9 -6 10 -6 10 -24 -2z"/>
<path d="M1930 1472 c0 -5 7 -9 15 -9 8 0 12 4 9 9 -3 4 -9 8 -15 8 -5 0 -9
-4 -9 -8z"/>
<path d="M2020 1376 c0 -2 8 -10 18 -17 15 -13 16 -12 3 4 -13 16 -21 21 -21
13z"/>
<path d="M2075 1330 c3 -5 8 -10 11 -10 2 0 4 5 4 10 0 6 -5 10 -11 10 -5 0
-7 -4 -4 -10z"/>
<path d="M9041 1312 c0 -4 4 -16 9 -27 8 -19 9 -19 9 2 1 17 6 20 24 16 12 -3
20 -3 17 0 -8 9 -60 17 -59 9z"/>
<path d="M9025 1250 c-3 -6 1 -7 9 -4 18 7 21 14 7 14 -6 0 -13 -4 -16 -10z"/>
<path d="M8990 1230 c0 -5 5 -10 10 -10 6 0 10 5 10 10 0 6 -4 10 -10 10 -5 0
-10 -4 -10 -10z"/>
<path d="M9039 1223 c-13 -16 -12 -17 4 -4 9 7 17 15 17 17 0 8 -8 3 -21 -13z"/>
<path d="M2388 1113 c-22 -13 -22 -13 -1 -8 15 4 25 0 32 -12 6 -10 11 -12 11
-5 0 6 5 12 11 12 5 0 7 -5 3 -12 -5 -7 -3 -8 6 -3 10 6 10 11 -3 20 -9 7 -15
14 -12 17 11 11 -25 4 -47 -9z"/>
<path d="M8770 1070 c0 -5 5 -10 11 -10 5 0 7 5 4 10 -3 6 -8 10 -11 10 -2 0
-4 -4 -4 -10z"/>
<path d="M2518 1043 c-22 -5 -24 -20 -3 -20 8 0 16 6 19 14 3 7 4 12 3 12 -1
-1 -10 -3 -19 -6z"/>
<path d="M2547 1029 c-3 -12 -3 -18 1 -15 3 4 12 -4 19 -16 7 -13 12 -17 13
-10 0 7 11 1 23 -14 14 -16 26 -23 30 -17 4 6 -7 22 -23 37 -17 15 -30 21 -30
14 0 -7 -5 -5 -11 5 -5 9 -7 22 -4 27 3 6 2 10 -3 10 -5 0 -12 -9 -15 -21z
m74 -56 c13 -16 12 -17 -3 -4 -10 7 -18 15 -18 17 0 8 8 3 21 -13z"/>
<path d="M8676 992 c-3 -5 1 -9 9 -9 8 0 12 4 9 9 -3 4 -7 8 -9 8 -2 0 -6 -4
-9 -8z"/>
<path d="M8610 970 c0 -5 5 -10 11 -10 5 0 7 5 4 10 -3 6 -8 10 -11 10 -2 0
-4 -4 -4 -10z"/>
<path d="M2635 940 c-3 -5 -1 -10 4 -10 6 0 11 5 11 10 0 6 -2 10 -4 10 -3 0
-8 -4 -11 -10z"/>
<path d="M8507 943 c-10 -9 -9 -23 2 -23 5 0 11 7 15 15 5 15 -5 20 -17 8z"/>
<path d="M8570 932 c0 -4 9 -8 20 -9 11 -1 20 2 20 5 0 4 -9 8 -20 9 -11 1
-20 -2 -20 -5z"/>
<path d="M2770 899 c0 -4 6 -19 14 -33 11 -22 15 -24 20 -11 8 23 8 27 -3 20
-6 -3 -14 3 -20 12 -6 10 -11 15 -11 12z"/>
<path d="M8442 889 c-14 -5 -20 -13 -16 -21 5 -7 2 -9 -9 -5 -22 8 -40 -16
-24 -34 6 -8 11 -12 10 -10 -2 2 2 10 8 18 10 11 15 11 28 1 15 -12 15 -11 1
6 -14 18 -13 19 2 13 10 -3 20 -1 24 5 4 6 3 8 -2 5 -6 -3 -16 -2 -24 4 -12 7
-11 9 5 10 11 1 24 1 28 0 5 -1 6 3 2 9 -3 5 -7 10 -8 9 -1 0 -12 -4 -25 -10z
m-32 -39 c0 -5 -5 -10 -11 -10 -5 0 -7 5 -4 10 3 6 8 10 11 10 2 0 4 -4 4 -10z"/>
<path d="M2815 849 c-4 -6 -5 -12 -2 -15 2 -3 7 2 10 11 7 17 1 20 -8 4z"/>
<path d="M2840 845 c-7 -8 -9 -15 -4 -15 5 0 2 -5 -6 -10 -9 -6 -10 -10 -3
-10 6 0 18 6 26 14 8 8 19 11 27 6 7 -4 8 -10 4 -12 -5 -3 -3 -3 4 -1 8 1 12
-3 9 -9 -2 -7 -9 -12 -14 -11 -5 1 -10 -4 -10 -12 0 -10 4 -11 19 -2 23 15 23
30 1 49 -31 26 -40 28 -53 13z"/>
<path d="M2910 772 c0 -5 7 -9 15 -9 8 0 12 4 9 9 -3 4 -9 8 -15 8 -5 0 -9 -4
-9 -8z"/>
<path d="M8246 733 c-6 -14 -5 -15 5 -6 7 7 10 15 7 18 -3 3 -9 -2 -12 -12z"/>
<path d="M2955 730 c3 -5 8 -10 11 -10 2 0 4 5 4 10 0 6 -5 10 -11 10 -5 0 -7
-4 -4 -10z"/>
<path d="M3114 690 c0 -25 16 -27 17 -2 0 10 3 12 6 5 2 -7 9 -13 15 -13 6 0
6 6 -2 15 -18 21 -36 19 -36 -5z"/>
<path d="M3096 652 c-3 -5 1 -9 9 -9 8 0 12 4 9 9 -3 4 -7 8 -9 8 -2 0 -6 -4
-9 -8z"/>
<path d="M7974 628 c-3 -5 -12 -7 -19 -4 -19 7 -50 -30 -34 -40 7 -4 10 -3 6
3 -4 6 1 17 10 24 14 12 15 11 9 -11 -6 -21 -5 -22 4 -7 6 9 16 15 21 11 5 -3
8 0 7 8 -2 8 5 12 20 10 27 -4 29 4 2 11 -11 3 -23 1 -26 -5z"/>
<path d="M7878 589 c-10 -5 -18 -14 -18 -19 0 -6 8 -10 18 -10 15 0 15 2 2 11
-12 9 -11 10 7 6 15 -3 20 -1 16 9 -3 8 -6 14 -7 14 0 0 -9 -5 -18 -11z"/>
<path d="M3406 559 c2 -4 -4 -10 -13 -12 -14 -4 -13 -5 5 -6 12 0 22 4 22 11
0 6 3 8 7 4 4 -4 8 -15 8 -23 0 -9 6 -17 13 -19 7 -1 8 0 2 3 -5 2 -10 9 -10
14 0 6 6 7 13 3 9 -6 9 -5 0 8 -7 8 -10 18 -6 21 3 4 -5 6 -20 5 -14 -1 -24
-5 -21 -9z"/>
<path d="M3470 529 c0 -5 4 -8 9 -5 11 7 33 -19 24 -28 -4 -4 0 -4 10 0 10 4
17 1 17 -6 0 -7 7 -10 16 -6 12 5 15 2 10 -9 -3 -9 -2 -13 4 -10 24 15 7 41
-22 36 -5 0 -8 4 -8 10 0 5 -4 8 -9 5 -5 -3 -14 1 -21 9 -14 17 -30 20 -30 4z"/>
<path d="M7735 530 c-2 -3 5 -7 16 -7 10 -1 19 2 19 6 0 9 -29 10 -35 1z"/>
<path d="M3476 495 c4 -8 8 -15 10 -15 2 0 4 7 4 15 0 8 -4 15 -10 15 -5 0 -7
-7 -4 -15z"/>
<path d="M7590 469 c-13 -23 -5 -39 18 -38 15 1 15 2 0 6 -23 6 -23 17 -1 34
14 12 16 12 11 -2 -5 -13 -1 -15 20 -10 19 3 22 6 9 9 -9 2 -15 7 -13 11 3 4
-4 8 -15 8 -10 1 -24 -7 -29 -18z"/>
<path d="M7675 470 c-3 -6 1 -7 9 -4 18 7 21 14 7 14 -6 0 -13 -4 -16 -10z"/>
<path d="M3625 459 c-4 -6 -4 -13 -1 -16 3 -4 6 -1 6 5 0 7 5 12 11 12 6 0 9
-7 6 -15 -4 -8 -2 -17 4 -20 5 -4 9 -3 8 2 -4 22 2 34 14 27 6 -4 9 -3 4 1
-12 13 -45 16 -52 4z"/>
<path d="M3575 450 c3 -5 8 -10 11 -10 2 0 4 5 4 10 0 6 -5 10 -11 10 -5 0 -7
-4 -4 -10z"/>
<path d="M3734 419 c-3 -6 -3 -13 0 -16 3 -4 6 0 6 8 0 12 2 12 9 0 5 -8 11
-9 15 -3 3 5 -1 12 -9 16 -8 3 -17 1 -21 -5z"/>
<path d="M7416 421 c-4 -5 1 -8 9 -7 21 3 31 16 12 16 -9 0 -18 -4 -21 -9z"/>
<path d="M3780 405 c-7 -9 -10 -18 -7 -21 3 -3 10 4 17 15 13 25 8 27 -10 6z"/>
<path d="M7391 383 c7 -12 15 -20 18 -17 3 2 -3 12 -13 22 -17 16 -18 16 -5
-5z"/>
<path d="M3854 378 c-3 -5 -3 -12 0 -15 3 -4 6 0 6 7 0 7 9 3 20 -10 l20 -24
-3 24 c-4 24 -32 36 -43 18z"/>
<path d="M3816 357 c3 -10 9 -15 12 -12 3 3 0 11 -7 18 -10 9 -11 8 -5 -6z"/>
<path d="M3926 354 c-11 -7 -16 -17 -11 -21 4 -5 10 -2 12 5 3 6 9 10 13 7 5
-3 11 -1 14 4 11 17 -8 20 -28 5z"/>
<path d="M7310 330 c0 -5 7 -7 15 -4 8 4 15 8 15 10 0 2 -7 4 -15 4 -8 0 -15
-4 -15 -10z"/>
<path d="M4086 321 c-3 -5 0 -14 8 -20 10 -9 15 -8 19 3 9 22 -15 37 -27 17z"/>
<path d="M7147 315 c3 -8 9 -12 14 -9 12 7 11 11 -5 17 -10 4 -13 1 -9 -8z"/>
<path d="M3974 308 c-4 -7 -4 -10 1 -6 4 4 15 2 24 -5 14 -11 14 -10 2 6 -16
20 -18 21 -27 5z"/>
<path d="M7200 290 c-9 -6 -10 -10 -3 -10 6 0 15 5 18 10 8 12 4 12 -15 0z"/>
<path d="M7070 270 c0 -5 5 -10 10 -10 6 0 10 5 10 10 0 6 -4 10 -10 10 -5 0
-10 -4 -10 -10z"/>
<path d="M4260 255 c-10 -13 -11 -18 -1 -28 10 -9 11 -8 5 7 -6 15 -4 17 6 11
9 -5 11 -4 6 3 -10 17 1 15 23 -5 11 -9 17 -21 14 -26 -3 -6 -1 -7 6 -3 8 6 9
12 2 20 -7 9 -7 17 2 26 10 12 9 12 -5 2 -11 -9 -18 -10 -23 -2 -9 14 -20 13
-35 -5z"/>
<path d="M6919 268 c-6 -20 -3 -45 6 -45 7 0 10 10 7 24 -4 20 -10 29 -13 21z"/>
<path d="M6970 229 c0 -5 5 -7 10 -4 6 3 10 8 10 11 0 2 -4 4 -10 4 -5 0 -10
-5 -10 -11z"/>
<path d="M4365 210 c3 -5 11 -10 16 -10 6 0 7 5 4 10 -3 6 -11 10 -16 10 -6 0
-7 -4 -4 -10z"/>
<path d="M4554 193 c2 -16 6 -27 10 -25 3 1 6 4 6 7 0 3 0 14 0 25 0 11 -4 20
-9 20 -5 0 -8 -12 -7 -27z"/>
<path d="M6499 164 c-16 -17 -18 -23 -7 -19 9 4 19 13 22 22 5 12 9 13 21 3 9
-7 18 -10 21 -7 3 3 -3 10 -14 16 -16 8 -24 5 -43 -15z"/>
<path d="M4470 175 c0 -7 30 -13 34 -7 3 4 -4 9 -15 9 -10 1 -19 0 -19 -2z"/>
<path d="M6713 163 c0 -9 4 -10 14 -2 7 6 13 12 13 14 0 1 -6 2 -13 2 -8 0
-14 -6 -14 -14z"/>
<path d="M4915 159 c-4 -6 -14 -8 -22 -4 -13 4 -14 3 -3 -10 7 -9 13 -14 14
-13 1 2 8 11 15 21 7 9 11 17 8 17 -3 0 -9 -5 -12 -11z"/>
<path d="M4596 148 c3 -5 10 -6 15 -3 13 9 11 12 -6 12 -8 0 -12 -4 -9 -9z"/>
<path d="M6207 143 c-10 -9 -9 -23 2 -23 5 0 11 7 15 15 5 15 -5 20 -17 8z"/>
<path d="M5452 107 c7 -14 13 -17 16 -9 2 6 8 12 13 12 6 0 5 -9 -1 -22 -10
-22 -10 -22 4 -4 15 18 42 13 30 -6 -4 -7 -2 -8 5 -4 8 6 9 12 2 20 -7 9 -7
17 2 26 10 12 9 12 -5 1 -9 -7 -22 -10 -28 -6 -5 3 -19 8 -30 10 -18 3 -19 1
-8 -18z"/>
<path d="M5763 123 c-7 -2 -13 -9 -13 -14 0 -4 7 -5 17 -2 12 5 14 3 8 -8 -8
-12 -6 -12 8 0 25 20 11 37 -20 24z"/>
<path d="M5911 109 c12 -11 15 -19 8 -26 -7 -7 -7 -13 0 -18 6 -3 11 -3 10 2
-1 4 0 10 1 13 7 19 7 39 -1 34 -6 -3 -16 -2 -22 3 -7 4 -5 1 4 -8z"/>
<path d="M4955 110 c-3 -6 1 -7 9 -4 18 7 21 14 7 14 -6 0 -13 -4 -16 -10z"/>
<path d="M5975 101 c-3 -7 -3 -16 0 -19 3 -3 5 0 5 6 0 7 5 12 11 12 5 0 7 -6
3 -12 -4 -7 -4 -10 1 -6 4 4 15 2 24 -5 14 -10 14 -10 3 5 -8 9 -11 21 -9 25
3 5 -3 9 -13 9 -11 0 -22 -7 -25 -15z"/>
<path d="M6340 116 c0 -2 7 -7 16 -10 8 -3 12 -2 9 4 -6 10 -25 14 -25 6z"/>
<path d="M6386 108 c3 -5 10 -6 15 -3 13 9 11 12 -6 12 -8 0 -12 -4 -9 -9z"/>
<path d="M5710 85 c0 -8 4 -15 10 -15 5 0 7 7 4 15 -4 8 -8 15 -10 15 -2 0 -4
-7 -4 -15z"/>
<path d="M5175 69 c-3 -4 2 -6 10 -5 21 3 28 13 10 13 -9 0 -18 -4 -20 -8z"/>
<path d="M5836 68 c3 -5 10 -6 15 -3 13 9 11 12 -6 12 -8 0 -12 -4 -9 -9z"/>
</g>
</svg>
